<?xml version="1.0" encoding="utf-8"?>
<!DOCTYPE svg PUBLIC "-//W3C//DTD SVG 20010904//EN" "http://www.w3.org/TR/2001/REC-SVG-20010904/DTD/svg10.dtd">
<svg version="1.0" xmlns="http://www.w3.org/2000/svg" viewBox="0 0 492 1228" preserveAspectRatio="xMidYMid meet">
 <g fill="#000000">
  <path d="M15.5 1221.1 c-5.6 -1 -10 -3.5 -12.9 -7.4 l-2.6 -3.4 0 -599.5 c0 -582.8 0.1 -599.5 1.9 -601.2 3.1 -2.8 12.5 -5.5 21.3 -6.2 7 -0.5 9.3 -0.3 14.8 1.6 10 3.3 14.4 6.6 21.4 16 3.5 4.7 36.1 51 72.5 103 36.4 52 67 95.6 68 97 l1.8 2.5 122.9 -0.5 c67.6 -0.3 132.6 -0.5 144.4 -0.5 l21.5 0 0.3 44.8 c0.2 39.3 0 44.8 -1.3 45.3 -0.8 0.4 -99.1 0.9 -218.3 1.3 l-216.7 0.6 -0.3 13.4 c-0.1 8 0.1 13.8 0.8 14.6 1.5 1.8 66.3 2.6 263.5 3.1 93.5 0.2 170.6 0.6 171.3 0.9 1.4 0.5 1.8 39.1 0.3 41.4 -0.7 1.1 -3.8 1.2 -16.2 0.7 -8.5 -0.4 -18.9 -0.9 -23.1 -1.2 -6.6 -0.5 -7.9 -0.4 -8.4 1 -0.4 1.2 3.1 6.5 11.2 17.2 10.2 13.3 16.4 21.6 23 30.9 1.1 1.5 3 2.1 7.7 2.5 l6.2 0.5 0.3 10.5 c0.1 5.8 -0.1 11 -0.5 11.6 -0.5 0.8 -8.6 1.4 -23.7 1.9 l-22.9 0.7 -6.1 -6.8 c-3.4 -3.7 -8 -8.7 -10.2 -11.1 l-4.1 -4.3 -65.9 -0.1 c-36.3 0 -72.9 0 -81.4 0.1 -8.5 0.1 -34.1 -0.4 -56.8 -1 -32.3 -0.9 -41.6 -0.9 -42.7 0 -1.3 1.1 -1.5 12.7 -1.4 85.4 0.1 46.2 0.6 127.5 1.3 180.5 l1.1 96.3 7 4 c9.5 5.4 14.9 10.9 19.3 19.7 3.6 7.4 3.7 7.7 3.7 19.5 0 11.7 -0.1 12.3 -3.3 18.7 -4.5 8.9 -11.9 16.1 -21.1 20.7 -7.3 3.6 -7.8 3.7 -18.5 3.7 -10.4 0 -11.5 -0.2 -17.8 -3.2 -16.1 -7.6 -25.8 -22.4 -26 -39.2 0 -9 1.3 -14.6 5.3 -22.2 4.1 -7.6 11.3 -14.4 20 -18.8 l7.4 -3.8 0.7 -55.9 c0.4 -34.3 0.3 -56.3 -0.3 -56.9 -1.2 -1.2 0.9 -3.7 -32 38 -15.6 19.8 -36.2 45.6 -45.7 57.4 -9.5 11.7 -18.2 22.6 -19.4 24.2 -2.1 2.7 -2.1 3.9 -2.6 55.6 -0.2 29 -0.3 116.7 -0.2 194.8 0.1 108.1 -0.1 143.1 -1 146.7 -1.4 5.4 -5.9 10.6 -11.6 13.3 -4.2 2 -18.9 2.9 -25.9 1.6z m155.2 -358.2 c9.6 -3.6 14.1 -15.6 9.3 -24.9 -2.8 -5.6 -7.2 -8.3 -14.1 -8.8 -4.9 -0.4 -6.5 0 -10.3 2.2 -7.7 4.5 -10.6 13.8 -6.7 22.1 3.9 8.5 13.4 12.6 21.8 9.4z m-109.6 -93.6 c9.2 -12.3 67.9 -87.6 79.5 -102 6.8 -8.4 12.8 -16.2 13.5 -17.4 1.8 -3.4 0.8 -206.1 -1 -208.3 -1.2 -1.4 -6.7 -1.6 -50.1 -1.6 -38.2 0 -48.9 0.3 -49.1 1.3 -0.2 0.6 -0.3 76 -0.1 167.5 0.2 140.2 0.4 166.2 1.6 166.2 0.7 0 3.3 -2.6 5.7 -5.7z m346.9 -348.3 c0 -0.6 -4.7 -7.3 -10.4 -14.9 -7.7 -10.2 -11.3 -14.2 -13.8 -15.2 -2.6 -1 -24.7 -1.4 -101.3 -2 -53.9 -0.4 -126.8 -1.2 -162 -1.8 -48.9 -0.7 -64.3 -0.7 -65.1 0.2 -1.8 1.8 -2.8 28.2 -1.2 29.4 1.8 1.4 88.5 3.3 155.3 3.5 30.8 0 70 0.4 87 0.7 52.9 1.2 111.5 1.2 111.5 0.1z m-240.4 -198.5 c0.6 -1.4 -5.9 -11.3 -11.7 -18 l-2.8 -3.2 -48.1 -0.7 c-36.7 -0.6 -48.5 -0.5 -49.6 0.5 -1.8 1.5 -2 19.9 -0.2 21.7 0.9 0.9 14.8 1.2 56.5 1.2 48 0 55.4 -0.2 55.9 -1.5z m-34.2 -49.4 c0.5 -0.7 -73.1 -107 -76.5 -110.6 -0.7 -0.6 -1.3 -0.5 -1.9 0.5 -0.6 0.9 -1 23.1 -1 54.7 0 47 0.2 53.3 1.6 54.7 1.3 1.4 6.3 1.6 39.4 1.6 20.8 0 38.1 -0.4 38.4 -0.9z"/>
 </g>
</svg>