<?xml version="1.0" encoding="utf-8"?>
<!DOCTYPE svg PUBLIC "-//W3C//DTD SVG 20010904//EN" "http://www.w3.org/TR/2001/REC-SVG-20010904/DTD/svg10.dtd">
<svg version="1.0" xmlns="http://www.w3.org/2000/svg" width="215px" height="215px" viewBox="0 0 215 215" preserveAspectRatio="xMidYMid meet">
 <g fill="#000000">
  <path d="M85.6 213.5 c-9.6 -2 -18.9 -5.2 -27.1 -9.3 -30.3 -15.1 -51.2 -43.1 -57 -76.1 -1.9 -10.9 -1.9 -31.7 0 -41.8 7.7 -40.8 36.7 -72.2 77 -83.4 6.5 -1.8 11.4 -2.3 26 -2.7 20.2 -0.5 27.3 0.4 40.5 5 16.2 5.7 26.2 11.9 38.7 24.1 13.8 13.3 22.2 27.3 27.9 46.3 2.5 8.1 2.8 10.7 3.2 29.4 0.4 19.8 0.3 20.9 -2.3 30.5 -10.2 37.9 -37.5 65.8 -74.5 76.1 -8.3 2.3 -11.8 2.7 -27.5 3 -12.9 0.2 -19.9 -0.1 -24.9 -1.1z m93.5 -54.1 c0.8 -0.8 3.6 -5.3 6.1 -10.1 14.5 -27.7 15 -55.7 1.6 -83.3 l-4.2 -8.5 -0.7 4.6 c-1.1 7.2 -17.6 54.9 -32.2 93.1 l-2.6 6.6 15.2 -0.5 c10.7 -0.4 15.7 -1 16.8 -1.9z m-49.8 -6.6 c4.7 -11.2 13.5 -34.5 26.2 -69.7 6 -16.7 11.9 -31.3 13.6 -33.7 1.6 -2.3 2.9 -4.6 2.9 -5.1 0 -1.2 -8.5 -9.3 -14.4 -13.8 -6.6 -4.9 -20.6 -11.8 -29.2 -14.4 -10 -3 -22.6 -4.2 -31.5 -3 -17.3 2.4 -35.7 11.1 -49.6 23.4 l-6.7 6 8.1 0.7 c13 1.1 20.2 5.8 27.5 17.9 l3.3 5.6 3.5 -1.8 c2.5 -1.4 5.6 -1.9 10.8 -1.9 8.5 0 12.4 1.6 15.2 6.3 2.6 4.3 2.7 13.9 0.2 18.7 -3.3 6.3 -14.2 9.9 -21.6 7 -2.5 -0.9 -2.6 -0.8 -2.6 2.9 l0 3.8 5.3 -1 c8.5 -1.5 14.2 -0.2 19.3 4.5 5.7 5.3 6.7 8.9 6.2 22.4 -0.5 13 -2.3 17.6 -10.5 26.5 -6.3 6.8 -6.7 6.6 9.8 6.8 l10.7 0.1 3.5 -8.2z m-74.3 4.3 c0.5 -1.1 1 -8 1 -15.4 0 -14.5 0.9 -18.7 4.8 -22.9 2.4 -2.6 2.4 -2.9 0.9 -4.6 -3.6 -4 -6.9 -13.2 -7.7 -22 -1.1 -12 -2.4 -16.1 -6.4 -20.9 -3.6 -4.1 -16.8 -11.9 -18.5 -10.8 -1.6 0.9 -6 11.4 -8.8 20.5 -2.3 7.4 -2.7 10.3 -2.7 23 -0.1 11.2 0.4 16.1 1.8 21.5 2.2 8.3 8.1 22.3 11.9 28.2 l2.7 4.2 8.2 0.4 c4.6 0.1 9.1 0.4 10 0.5 1 0.1 2.2 -0.7 2.8 -1.7z m26.8 -4.8 c4.3 -5.9 9.2 -14.2 9.2 -15.7 0 -0.2 -1.4 -0.7 -3.1 -1.1 -1.7 -0.4 -4.6 -2 -6.5 -3.7 -1.9 -1.7 -3.4 -2.6 -3.5 -2.2 0 0.5 -0.2 6.5 -0.3 13.4 -0.1 6.9 -0.6 13.3 -1 14.3 -1.6 3.4 0.3 1.6 5.2 -5z"/>
 </g>
 <g fill="none">
  <path d="M0 107.5 l0 -107.5 107.5 0 107.5 0 0 107.5 0 107.5 -107.5 0 -107.5 0 0 -107.5z m135 101 c36.8 -10.1 64.4 -38.1 74.4 -75.5 3.3 -12.6 4.1 -22.2 2.7 -35.3 -2.8 -25.6 -12 -45.4 -29.4 -63.4 -18.4 -18.9 -39.5 -29 -66.1 -31.4 -41.5 -3.7 -83.1 19.4 -101.9 56.6 -7.9 15.8 -11.7 31.1 -11.7 47.5 0 50.7 35 93 85.6 103.5 11.2 2.3 34.5 1.3 46.4 -2z"/>
  <path d="M102.7 199 c-0.5 -1.9 -1.4 -2 -12.4 -2.1 -6.5 -0.1 -12.9 -0.5 -14.3 -0.9 -1.5 -0.5 4.7 -0.8 15 -0.9 9.6 -0.1 25.4 -0.3 35 -0.6 15.8 -0.5 17.2 -0.4 14.5 0.9 -2.2 1.1 -7 1.5 -18.2 1.6 -14.6 0 -15.3 0.1 -15.3 2 0 1.3 -0.7 2 -1.9 2 -1 0 -2.1 -0.9 -2.4 -2z"/>
  <path d="M83.8 189.3 l-0.3 -2.8 -14.2 -0.5 c-7.8 -0.3 -14.7 -0.9 -15.2 -1.5 -0.7 -0.7 16.9 -0.9 52.7 -0.8 29.5 0.2 53.9 0.3 54.2 0.3 0.3 0 -0.4 0.6 -1.5 1.2 -1.3 0.8 -7.1 1.1 -17 0.9 -12.7 -0.2 -15.3 0 -16.4 1.3 -0.7 0.9 -1.1 2.3 -0.7 3.1 0.3 0.9 0 1.5 -0.9 1.5 -0.9 0 -1.5 -1 -1.5 -2.5 l0 -2.5 -18 0 -18 0 0 2.5 c0 3.5 -2.8 3.3 -3.2 -0.2z"/>
  <path d="M142.1 180.3 c-0.2 -5.3 -0.2 -5.3 -17 -5.3 -8.6 0 -16.2 0.4 -17 0.9 -0.8 0.5 -1.2 1.8 -0.8 3 0.3 1.4 0 2.1 -0.9 2.1 -0.9 0 -1.4 -1.1 -1.4 -2.9 l0 -2.8 -13.2 -0.6 c-7.3 -0.4 -15.3 -0.3 -17.8 0.1 -4 0.6 -4.5 1 -4.8 3.5 -0.5 3.8 -2 3.4 -2.8 -0.8 -0.5 -3.1 -1 -3.5 -3.6 -3.5 -1.8 0 -2.7 -0.4 -2.3 -1 0.5 -0.8 18.5 -1 57 -0.8 44.9 0.2 56.1 0.6 55.3 1.6 -0.7 0.8 -4.3 1.2 -11.2 1.2 -15 0 -17.4 0.6 -18.5 4.4 -0.7 2.3 -0.9 2.6 -1 0.9z"/>
  <path d="M40 172 c0 -0.5 2.1 -1 4.6 -1 2.7 0 4.3 0.4 3.9 1 -0.3 0.6 -2.4 1 -4.6 1 -2.1 0 -3.9 -0.4 -3.9 -1z"/>
  <path d="M124 166.5 l0 -2.5 -11.5 -0.2 c-23.2 -0.4 -22 -0.6 -22.3 2 -0.3 1.8 -1 2.2 -3.8 2.2 -5.2 0 -4.2 -2 3.2 -6.5 8 -4.8 17.2 -14.4 20.4 -21.1 2.5 -5.3 3.8 -16.5 2.6 -22.9 -1 -5 -7.7 -12.2 -12.7 -13.5 -4.6 -1.3 -10.6 -0.1 -14.8 2.9 l-3.1 2.2 0 -11.1 0 -11.1 2.6 2 c4.7 3.7 9 4.5 14 2.6 14.4 -5.5 11 -25.5 -4.4 -25.5 -6.3 0 -10.8 2.5 -12.8 6.9 l-1.6 3.8 -4.1 -7.9 c-5.1 -10 -10.5 -16.2 -17.1 -19.5 -4.1 -2.1 -6.9 -2.7 -14.8 -3.1 -5.4 -0.3 -9.8 -0.9 -9.8 -1.4 0 -0.6 3.8 -4.7 8.4 -9.1 28.2 -27.6 69 -34 104.1 -16.5 4.4 2.3 10 5.4 12.4 7.1 5.8 4 18.1 15.6 18.1 17.2 0 0.6 -1.8 4 -4 7.4 -2.8 4.3 -7.3 15.3 -14.6 35.4 -12.1 33.6 -23.2 62.9 -26.8 71 -1.3 3 -2.2 5.7 -2 6 0.3 0.2 0 1.6 -0.5 3.1 -1.4 3.5 -5.1 3.6 -5.1 0.1z"/>
  <path d="M159.8 167 c-0.3 -2.2 -0.6 -2.3 -9.2 -2.1 -8.2 0.2 -8.8 0.1 -8.1 -1.6 8.5 -21.7 28.8 -78 33.6 -93.4 1.3 -4.1 2.6 -11.2 2.9 -15.9 l0.5 -8.5 4.7 7.5 c19.1 30.5 20.8 67 4.6 98.3 -6.6 12.8 -6.4 12.6 -17.1 12.9 -8.5 0.3 -9.2 0.5 -10.3 2.7 l-1.2 2.4 -0.4 -2.3z"/>
  <path d="M51 165.5 c0 -3.4 -3.1 -4.5 -12.6 -4.5 l-7.4 0 -2.7 -4.2 c-3.8 -6.1 -9.8 -20.2 -11.7 -27.8 -5.6 -22.7 -2.9 -47.3 7.6 -68.6 l4.2 -8.4 2 2.4 c1.2 1.3 5.4 4.1 9.4 6.1 8.3 4.3 13.7 9.9 15.3 15.9 0.6 2.2 1.5 8 1.9 12.8 1 10.2 4.4 18.9 9.5 23.8 l3.3 3.2 -4.3 3.9 c-5.7 5.2 -6.9 9.8 -6.3 23.7 0.6 12.3 -0.3 16.6 -3.7 18.8 -1.4 0.9 -2.5 2.2 -2.5 3 0 0.7 -0.4 1.6 -1 1.9 -0.6 0.4 -1 -0.5 -1 -2z"/>
  <path d="M74.3 162.3 c-2.4 -0.2 -4.3 -0.5 -4.3 -0.7 0 -0.1 1 -2.2 2.2 -4.7 1.9 -3.8 2.2 -6.1 2.3 -16.9 0 -12.3 0.6 -15.2 3.8 -17.8 1.2 -1 1.7 -0.7 2.7 1.8 1.7 4 6.3 7.8 10.5 8.6 4.3 0.8 4.5 2.7 0.9 10.4 -2.1 4.7 -13 20.4 -13.7 19.8 -0.1 -0.1 -2.1 -0.3 -4.4 -0.5z"/>
  <path d="M138.4 153.5 c-1.5 -1.1 -1.6 -1.4 -0.3 -1.5 0.8 0 2.4 0.7 3.5 1.5 1.5 1.1 1.6 1.4 0.3 1.5 -0.8 0 -2.4 -0.7 -3.5 -1.5z"/>
  <path d="M140.8 151.8 c-1.6 -0.5 -2.8 -1.4 -2.8 -1.9 0 -0.5 1.4 -0.3 3 0.6 1.7 0.9 3 1.8 3 2 0 0.3 -0.1 0.5 -0.2 0.4 -0.2 0 -1.5 -0.5 -3 -1.1z"/>
  <path d="M140.4 148.5 c-1.5 -1.1 -1.6 -1.4 -0.3 -1.5 0.8 0 2.4 0.7 3.5 1.5 1.5 1.1 1.6 1.4 0.3 1.5 -0.8 0 -2.4 -0.7 -3.5 -1.5z"/>
  <path d="M173.8 59.8 c-3.2 -1.1 -3.4 -1.6 -1.2 -4.6 2.5 -3.6 4.4 -2.8 4.4 1.8 0 2.2 -0.1 4 -0.2 3.9 -0.2 0 -1.5 -0.5 -3 -1.1z"/>
 </g>
</svg>