<?xml version="1.0" encoding="utf-8"?>
<!DOCTYPE svg PUBLIC "-//W3C//DTD SVG 20010904//EN" "http://www.w3.org/TR/2001/REC-SVG-20010904/DTD/svg10.dtd">
<svg version="1.0" xmlns="http://www.w3.org/2000/svg" width="215px" height="215px" viewBox="0 0 215 215" preserveAspectRatio="xMidYMid meet">
 <g fill="none">
  <path d="M0 107.5 l0 -107.5 107.5 0 107.5 0 0 107.5 0 107.5 -107.5 0 -107.5 0 0 -107.5z m132 98 c23.9 -6.5 45.5 -21.8 59.2 -41.9 8.6 -12.6 16.5 -33.6 18.2 -48.6 1.5 -12.5 -3 -34.7 -9.8 -49.5 -9.1 -19.6 -27.9 -39.1 -47.3 -48.9 -8.1 -4 -7.7 -3 0.4 1.3 4 2.1 8.9 5.1 11 6.7 7 5.2 16.3 14.7 16.3 16.6 0 1 0.6 1.8 1.4 1.8 1.9 0 9.9 12.9 13.7 21.9 4.7 11.2 6.9 21.5 7.6 35.1 1 20.9 -2.4 37.8 -10.9 54.3 -6.7 12.9 -6.5 12.7 -16.8 12.7 -4.9 0 -9.2 0.5 -9.5 1 -0.4 0.6 1.7 1 5.4 1 l6.1 0 0 3.3 c0 5.1 -1.3 5.7 -12.4 5.7 -11.3 0 -17.6 0.8 -17.6 2.2 0 0.5 3.7 0.8 8.3 0.6 l8.2 -0.3 0.3 3.3 c0.6 5.7 -1.1 6.1 -18.4 5.5 -11.8 -0.5 -15.3 -0.3 -15.9 0.7 -0.6 1 0.6 1.2 6.2 0.6 8.8 -0.9 10.3 -0.3 10.3 3.9 0 2.8 -0.5 3.5 -3.1 4.4 -1.8 0.6 -9.8 1.1 -18 1.1 -14.2 0 -14.9 0.1 -14.9 2 0 1.7 -0.7 2 -4.9 2 -4.1 0 -5.1 -0.4 -5.6 -2 -0.6 -1.8 -1.5 -2 -11.4 -2 -6 0 -12.3 -0.3 -14 -0.6 -2.7 -0.6 -3.1 -1 -3.1 -4 l0 -3.4 5.1 0 c3.6 0 4.9 -0.4 4.7 -1.2 -0.3 -0.9 -4.5 -1.4 -14.4 -1.8 -7.6 -0.3 -14.5 -0.9 -15.1 -1.3 -0.7 -0.5 -1.3 -2.4 -1.3 -4.4 l0 -3.6 6.5 0.5 c5.9 0.5 6.5 0.4 6.5 -1.3 0 -1.5 -0.7 -1.9 -3.1 -1.9 -2.9 0 -3 -0.2 -2.7 -3.7 l0.3 -3.8 11.3 -0.3 c8.5 -0.2 11.2 -0.6 11.2 -1.6 0 -1.3 -4.9 -2.6 -10.2 -2.6 -2.5 0 -2.8 -0.4 -2.8 -3.3 0 -1.8 1 -5.3 2.2 -7.8 1.9 -3.9 2.1 -5.9 2 -16.5 -0.2 -11.1 0 -12.3 2.1 -15.5 1.8 -2.6 3.1 -3.5 5.8 -3.7 3.2 -0.3 3.8 0 4.9 2.8 1.7 4 6.2 7.8 10.5 8.6 3.5 0.6 3.5 0.7 3.5 5.8 0 5.3 -2.9 12.8 -7.2 18.9 l-2.3 3.2 3.2 -2.3 c5 -3.6 12.8 -12.7 15.2 -17.8 2.8 -5.9 3.7 -14 2.2 -18.7 -0.7 -1.9 -3.2 -5.4 -5.6 -7.6 -5.4 -4.9 -9.2 -5.3 -14.7 -1.6 -2 1.4 -5.1 2.5 -6.7 2.5 l-3.1 0 0 -14 0 -14 3 0 c1.6 0 4.6 1.1 6.6 2.5 2 1.4 4.4 2.5 5.3 2.5 2.9 0 7.7 -3.7 9.3 -7.1 1.5 -2.9 1.5 -3.6 0.2 -6.1 -1.5 -2.9 -6.8 -6.8 -9.2 -6.8 -3.5 0 -8.2 3.4 -9.9 7.1 -1.4 3.3 -2.1 3.9 -4.7 3.8 -2.9 0 -3.4 -0.7 -7 -8 -7.9 -16.2 -15.8 -21.9 -31.5 -22.7 -9.2 -0.5 -9.3 -0.5 -8.2 1.6 0.6 1.2 4.7 4 9.1 6.3 9.1 4.7 14.4 10.1 16.1 16.3 0.6 2.2 1.5 8 1.9 12.8 1 10.2 4.5 18.9 9.6 23.9 4.8 4.7 4.6 7.8 -1 12.9 -5.8 5.4 -7.1 10 -6.2 22.9 0.9 11.6 -0.3 17.3 -3.9 19.7 -1.4 0.9 -2.5 2.3 -2.5 3.1 0 0.8 -0.9 1.7 -1.9 2 -1.1 0.3 -2.1 1.5 -2.3 2.7 -0.3 1.9 -0.9 2.1 -7.8 2.1 l-7.5 0 -0.3 -3.7 -0.3 -3.8 6 0 c3.5 0 6.1 -0.4 6.1 -1 0 -2.1 -5.5 -3.2 -12.5 -2.5 l-7.1 0.6 -4.2 -7.3 c-10.9 -19.1 -15.1 -39.1 -13.2 -62.5 1 -12.2 4.3 -26.1 8 -33.3 1.1 -2.2 2 -4.3 2 -4.7 -0.2 -1.7 -7.4 13.5 -9.7 20.2 -3 8.8 -5.3 21.9 -5.3 30 0 8.1 2.3 21.2 5.3 30 9.1 26.5 28.1 48.2 53.2 60.7 21.8 10.9 45.2 13.4 67.5 7.3z m-13.5 -14.5 c1.2 -0.5 -3.8 -0.9 -13.2 -0.9 -9.6 -0.1 -15.3 0.3 -15.3 0.9 0 1.2 25.6 1.2 28.5 0z m-16.5 -11.3 c0 -1.1 -2.6 -1.5 -10.2 -1.9 -11.6 -0.6 -18.9 0.1 -19.6 2 -0.3 0.9 3.1 1.2 14.7 1.2 12 0 15.1 -0.3 15.1 -1.3z m36.4 -0.2 c-0.5 -1.3 -2.7 -1.5 -13.7 -1.3 -9.3 0.2 -13.2 0.7 -13.5 1.6 -0.3 0.9 2.9 1.2 13.7 1.2 12.2 0 14 -0.2 13.5 -1.5z m17.6 -10.5 c1 -0.7 -1.5 -1 -7.9 -1 l-9.4 0 0.5 -4.9 c0.4 -4.2 0.2 -5 -1.4 -5.4 -2 -0.6 -3.3 1.5 -4.8 8 -0.6 2.5 -0.4 3.3 0.9 3.6 3.2 0.9 20.6 0.6 22.1 -0.3z m-35 -1 c0 -0.6 -4.6 -1.1 -11.5 -1.2 -6.3 -0.1 -12.5 -0.2 -13.7 -0.2 -1.2 -0.1 -2.3 0.5 -2.5 1.2 -0.4 0.9 2.8 1.2 13.6 1.2 8.7 0 14.1 -0.4 14.1 -1z m31 -40.7 c9.1 -24.9 20.7 -58.5 21.1 -61.3 0.3 -1.6 -0.1 -2.5 -1 -2.5 -0.8 0 -4.7 9.4 -10.7 26 -5.2 14.3 -11.9 32.4 -14.8 40.3 -5.3 13.9 -5.4 14.2 -3.1 14.2 2.1 0 2.9 -1.7 8.5 -16.7z m-121 -81.3 c0 -1.6 -0.2 -3 -0.4 -3 -0.3 0 -1.4 1.4 -2.6 3 l-2.1 3 2.5 0 c2.2 0 2.6 -0.4 2.6 -3z m88.3 -39.7 c-1.3 -0.2 -3.3 -0.2 -4.5 0 -1.3 0.2 -0.3 0.4 2.2 0.4 2.5 0 3.5 -0.2 2.3 -0.4z"/>
 </g>
 <g fill="#ffffff">
  <path d="M88.6 210.5 c-22.3 -4.6 -41.1 -14.9 -56.5 -31.1 -19 -19.7 -29.1 -44.7 -29.1 -71.9 0 -73.1 73.7 -124 142.1 -98.2 14.6 5.5 26.1 13.1 37.6 25 17.4 18 26.6 37.8 29.4 63.4 1.4 13.1 0.6 22.7 -2.7 35.3 -10 37.4 -37.6 65.4 -74.4 75.5 -11.9 3.3 -35.2 4.3 -46.4 2z m18.4 -11.5 c0 -1.9 0.7 -2 14.9 -2 13.6 0 22.8 -1.3 20.3 -2.9 -0.6 -0.3 -6.6 -0.3 -13.4 0.1 -6.7 0.3 -22 0.7 -33.8 0.8 -22.2 0.2 -26.1 1.7 -4.8 1.9 10.7 0.1 11.7 0.3 12.3 2.1 0.3 1.1 1.5 2 2.6 2 1.2 0 1.9 -0.7 1.9 -2z m-20 -9.5 l0 -2.5 18 0 18 0 0 2.5 c0 1.5 0.6 2.5 1.5 2.5 0.9 0 1.2 -0.6 0.9 -1.5 -0.4 -0.8 0 -2.2 0.7 -3.1 1.1 -1.3 3.7 -1.5 16.4 -1.3 9.9 0.2 15.7 -0.1 17 -0.9 1.1 -0.6 1.8 -1.2 1.5 -1.2 -0.3 0 -24.7 -0.1 -54.2 -0.3 -35.8 -0.1 -53.4 0.1 -52.7 0.8 0.5 0.6 7.4 1.2 15.2 1.5 l14.2 0.5 0.3 2.8 c0.4 3.5 3.2 3.7 3.2 0.2z m60.7 -13.9 c2.1 -0.3 8.4 -0.6 13.9 -0.6 6.9 0 10.5 -0.4 11.2 -1.2 0.8 -1 -10.4 -1.4 -55.3 -1.6 -38.5 -0.2 -56.5 0 -57 0.8 -0.4 0.6 0.5 1 2.3 1 2.6 0 3.1 0.4 3.6 3.5 0.8 4.2 2.3 4.6 2.8 0.8 0.3 -2.5 0.8 -2.9 4.8 -3.5 2.5 -0.4 10.5 -0.5 17.8 -0.1 l13.2 0.6 0 2.8 c0 1.8 0.5 2.9 1.4 2.9 0.9 0 1.2 -0.7 0.9 -2.1 -0.4 -1.2 0 -2.5 0.8 -3 0.8 -0.5 8.4 -0.9 17 -0.9 16.8 0 16.8 0 17 5.3 0.1 1.7 0.3 1.4 1 -0.9 0.7 -2.6 1.5 -3.2 4.6 -3.8z m-99.2 -3.6 c0.4 -0.6 -1.3 -1 -4.5 -1 -3.2 0 -4.9 0.4 -4.5 1 0.3 0.6 2.4 1 4.5 1 2.1 0 4.2 -0.4 4.5 -1z m80.6 -5.6 c0.5 -1.5 0.8 -2.9 0.5 -3.1 -0.2 -0.3 0.7 -3 2 -6 3.6 -8.2 14.8 -37.7 26.8 -71 7.3 -20.1 11.8 -31.1 14.6 -35.4 2.2 -3.4 4 -6.8 4 -7.4 0 -1.6 -12.3 -13.2 -18.1 -17.2 -6.6 -4.5 -19.5 -10.8 -27.1 -13.1 -10.3 -3.2 -26.1 -4.6 -36.6 -3.2 -11.5 1.5 -26.3 6.6 -36.4 12.6 -7.6 4.6 -24.8 19.9 -24.8 22.2 0 0.5 4.4 1.1 9.8 1.4 7.9 0.4 10.7 1 14.8 3.1 6.6 3.3 12 9.5 17.1 19.5 l4.1 7.9 1.6 -3.8 c4 -9 19.3 -9.4 24.6 -0.6 6.5 10.5 -5.2 24 -16.7 19.2 -2 -0.9 -4.5 -2.3 -5.5 -3.2 -1.7 -1.5 -1.8 -1.1 -1.8 9.6 l0 11.2 3.1 -2.2 c4.2 -3 10.2 -4.2 14.8 -2.9 5 1.3 11.7 8.5 12.7 13.5 1.2 6.4 -0.1 17.6 -2.6 22.9 -3.2 6.7 -12.4 16.3 -20.4 21.1 -7.4 4.5 -8.4 6.5 -3.2 6.5 2.8 0 3.5 -0.4 3.8 -2.2 0.3 -2.6 -0.9 -2.4 22.3 -2 l11.5 0.2 0 2.5 c0 3.5 3.7 3.4 5.1 -0.1z m42.6 -2.2 c10.7 -0.3 10.5 -0.1 17.1 -12.9 16.1 -31.3 14.5 -67.8 -4.5 -98.1 l-4.8 -7.7 -0.5 8.5 c-0.3 4.7 -1.6 11.8 -2.9 15.9 -4.8 15.4 -25.1 71.7 -33.6 93.4 -0.7 1.7 -0.1 1.8 8.1 1.6 8.6 -0.2 8.9 -0.1 9.2 2.1 l0.4 2.3 1.2 -2.4 c1.1 -2.2 1.8 -2.4 10.3 -2.7z m-118.7 1.4 c0 -0.8 1.1 -2.1 2.5 -3 3.4 -2.2 4.3 -6.5 3.7 -18.8 -0.6 -13.9 0.6 -18.5 6.3 -23.7 l4.3 -3.9 -3.3 -3.2 c-5.1 -4.9 -8.5 -13.6 -9.5 -23.8 -0.4 -4.8 -1.3 -10.6 -1.9 -12.8 -1.6 -6 -7 -11.6 -15.3 -15.9 -4 -2 -8.2 -4.8 -9.4 -6.1 l-2 -2.4 -4.2 8.4 c-14.9 30.2 -13.8 64.9 2.8 94.1 l4.1 7 7.2 -0.3 c9.1 -0.4 12.7 0.8 12.7 4.3 0 1.5 0.4 2.4 1 2 0.6 -0.3 1 -1.2 1 -1.9z m31.4 -9.8 c5.8 -7.8 10.6 -16.9 10.6 -20.4 0 -1.7 -0.8 -2.3 -3.5 -2.8 -4.2 -0.8 -8.8 -4.6 -10.5 -8.6 -1 -2.5 -1.5 -2.8 -2.7 -1.8 -3.2 2.6 -3.8 5.5 -3.8 17.8 -0.1 10.8 -0.4 13.1 -2.3 16.9 -1.2 2.5 -2.2 4.6 -2.2 4.7 0 0.2 1.9 0.5 4.3 0.7 2.3 0.2 4.3 0.4 4.4 0.5 0.2 0.1 2.7 -3.1 5.7 -7z m57.2 -2.3 c-1.1 -0.8 -2.7 -1.5 -3.5 -1.5 -1.3 0.1 -1.2 0.4 0.3 1.5 1.1 0.8 2.7 1.5 3.5 1.5 1.3 -0.1 1.2 -0.4 -0.3 -1.5z m2.4 -1 c0 -0.2 -1.3 -1.1 -3 -2 -1.6 -0.9 -3 -1.1 -3 -0.6 0 0.7 2.2 1.9 5.8 3 0.1 0.1 0.2 -0.1 0.2 -0.4z m-0.4 -4 c-1.1 -0.8 -2.7 -1.5 -3.5 -1.5 -1.3 0.1 -1.2 0.4 0.3 1.5 1.1 0.8 2.7 1.5 3.5 1.5 1.3 -0.1 1.2 -0.4 -0.3 -1.5z m33.4 -91.5 c0 -2.8 -0.4 -4 -1.4 -4 -1.4 0 -4.6 3.6 -4.6 5.1 0 0.6 2.5 1.8 5.8 2.8 0.1 0.1 0.2 -1.7 0.2 -3.9z"/>
 </g>
</svg>