<?xml version="1.0" encoding="utf-8"?>
<!DOCTYPE svg PUBLIC "-//W3C//DTD SVG 20010904//EN" "http://www.w3.org/TR/2001/REC-SVG-20010904/DTD/svg10.dtd">
<svg version="1.0" xmlns="http://www.w3.org/2000/svg" viewBox="0 0 2088 1371" preserveAspectRatio="xMidYMid meet">
 <g fill="#000000">
  <path d="M1669.5 1362.1 c-5.3 -1.3 -7.2 -2.9 -11.8 -9.8 -6.6 -10 -6.5 -9.8 -12.7 -34.2 -3.2 -12.4 -14.5 -56.1 -25 -97.1 -10.5 -41 -21.3 -83 -24 -93.5 -5.7 -22 -34.1 -132.8 -43.1 -168 -3.4 -13.2 -6.8 -24.6 -7.5 -25.4 -0.7 -0.8 -3.9 -2.8 -7.1 -4.5 -3.3 -1.8 -6.4 -4.4 -7.4 -6.1 -1.5 -2.5 -32.2 -170.3 -39.4 -214.5 -2.9 -18.1 -1.8 -23.5 6 -29.4 1.9 -1.5 35.1 -29.9 73.7 -63.3 38.7 -33.3 73.6 -63 77.6 -66 4 -3 7.6 -6.2 7.9 -7 0.3 -0.9 0.1 -14 -0.5 -29.2 -1.1 -29.8 -1 -30.7 4 -34.4 2.4 -1.8 4.4 -2 24.5 -2.1 25.8 -0.1 24.6 0.3 33.6 -12.9 l5.8 -8.6 -0.1 -32.8 c0 -18 -0.4 -36.7 -0.9 -41.5 -0.9 -10 -1.2 -10.5 -14.4 -24.8 -4.3 -4.7 -10.9 -12.6 -14.7 -17.6 -3.8 -5 -9.3 -11.8 -12.3 -15 -2.9 -3.3 -9.8 -11.5 -15.2 -18.4 -10.4 -13.2 -28.6 -34.3 -65 -75.5 -28.5 -32.3 -47.1 -53.6 -62 -71 -6.6 -7.7 -24.6 -28.4 -40 -46 -39.5 -45.1 -51.9 -59.6 -54 -63 -4.6 -7.4 -26.1 -31.8 -28.9 -33 -4.3 -1.7 -992.2 -0.3 -995.4 1.4 -1.2 0.6 -8.8 9.3 -16.9 19.4 -17.2 21.3 -41.1 49.9 -71.4 85.8 -11.9 14.1 -22.5 26.8 -23.4 28.3 -1.6 2.5 -1.6 2.6 0.1 3.3 1.1 0.5 28.4 0.7 60.8 0.6 l58.9 -0.1 6.6 -7.3 c3.6 -4.1 21.2 -23.1 39.1 -42.3 17.9 -19.3 34.9 -37.6 37.7 -40.7 6.2 -6.7 16.4 -13.5 21.3 -14.4 1.9 -0.3 57.6 -0.1 123.7 0.4 l120.2 0.9 3.3 2.3 c3.5 2.5 27.9 24.6 78.3 70.9 l30 27.5 70 -0.4 c38.5 -0.2 71 -0.7 72.3 -1.2 1.3 -0.5 3 -2.5 3.8 -4.6 3.6 -8.7 5.1 -11.1 10.1 -16.1 12.9 -13 33.3 -16.4 50.2 -8.5 7.3 3.4 17 13.2 20.4 20.4 3.7 8 5.2 18 3.9 25.9 -1.5 8.2 -5.8 17.3 -11.1 23.2 -3.7 4.2 -4 4.9 -2.4 5.4 1 0.3 2.7 1 3.8 1.4 1.1 0.5 7.9 3 15 5.5 79.9 28.9 146.5 89.6 182.9 166.7 38.7 82 41.2 176.4 7.2 263.3 -1.6 3.9 -6.1 13.8 -10.1 22 -37.7 77.5 -107.3 137.8 -190.4 164.9 -21.9 7.2 -41.5 11.5 -67.1 14.8 -12.2 1.5 -56.5 1.5 -69.5 0 -65.6 -7.9 -124.9 -33.1 -174.4 -74.1 -14.8 -12.3 -38.8 -37.1 -53.3 -55.1 -5.5 -6.8 -20.2 -30.9 -27.9 -45.5 -15.1 -28.9 -26.3 -62.4 -32 -95.5 -1.5 -9.1 -3.9 -33.1 -3.9 -39.7 0 -3.4 -0.5 -6.5 -1 -6.8 -0.6 -0.3 -3.9 0.8 -7.4 2.5 -12.5 6.2 -25.6 6.4 -38.2 0.6 -8.1 -3.7 -14 -8.9 -19 -16.7 -6.8 -10.4 -8.2 -11.3 -17.9 -10.4 -8.4 0.7 -97.2 1.8 -273.5 3.5 -137.6 1.3 -257 2.8 -295.7 3.6 l-31.3 0.7 0 -11.5 0 -11.5 54.7 -0.6 c30.2 -0.4 69.4 -0.7 87.3 -0.7 29.9 0 70.3 -0.4 252.4 -3 40.6 -0.5 66.3 -1.3 66.9 -1.9 0.6 -0.6 -6.4 -8.7 -20.4 -23.3 -11.7 -12.3 -22.3 -23 -23.4 -23.8 -1.7 -1.3 -6.7 -1.5 -32 -1.3 -16.5 0.1 -46.9 0.6 -67.5 1.2 -20.6 0.6 -97.1 1.5 -170 2.1 -72.9 0.6 -136 1.2 -140.2 1.4 l-7.8 0.4 0 -21.8 0 -21.8 10.3 -0.6 c12.2 -0.7 265.6 -3.1 324 -3.1 22.6 0 40.7 -0.4 40.7 -0.9 0 -0.5 -6.8 -7.5 -15 -15.7 -14 -13.7 -15.4 -14.8 -19.7 -15.5 -2.5 -0.4 -21.1 -0.1 -41.2 0.5 -73.7 2.5 -106.6 3.1 -201.8 3.7 l-97.3 0.7 0 -45.5 c0 -40.6 0.2 -45.7 1.6 -46.2 0.9 -0.3 4.6 -0.6 8.4 -0.6 l6.9 0 7.5 -8.3 c4.1 -4.5 17.2 -20.3 29.1 -35.2 11.9 -14.8 59.3 -70.5 105.3 -123.7 l83.7 -96.7 17.3 0 17.3 -0.1 -16.8 19.3 c-39.4 45.2 -51.8 59.5 -105.3 121.2 -31 35.8 -60.9 70 -66.5 76 -14.5 15.7 -38.5 44.5 -38.5 46.1 0 1.1 2.9 1.4 15.1 1.4 14.4 0 15.1 -0.1 16.9 -2.2 9.6 -11.6 42.1 -50 104.4 -123.3 40.7 -47.8 83.8 -98.6 95.9 -112.7 l21.8 -25.8 642.5 0 642.4 0 3.9 4.3 c2.1 2.3 5.9 6.9 8.4 10.2 2.5 3.3 13.8 16.8 25.1 30 31.8 37.1 145.6 173.5 155.9 186.9 19 24.7 33.6 41.5 36.4 42.1 1.6 0.4 4.7 1.1 7.1 1.7 5.6 1.4 105.1 0.1 107 -1.4 0.7 -0.6 2.1 -3.1 3.2 -5.5 7.2 -16.3 22.6 -26.3 40.5 -26.3 33 0 53.8 33.8 39 63.6 -6.2 12.7 -17.8 21.1 -32.3 23.6 -17.1 2.9 -35.4 -5.7 -44.4 -20.8 -1.8 -2.9 -3.7 -5.5 -4.3 -5.7 -2 -0.8 -97.3 0.8 -98.1 1.6 -0.9 0.9 -0.8 11.3 0.7 63.7 1.3 47.3 2.6 74.6 3.9 79.2 0.8 2.8 3.7 6.1 11.5 13.4 15.2 14.2 13.4 13.4 30.8 13.4 20.5 0 22.9 1.3 26.1 13.6 0.9 3.8 1.7 13.5 2.1 26.9 0.3 11.6 0.8 22.5 1.1 24.2 0.4 2.6 2.4 5 9.7 11.4 5.1 4.4 12.4 10.9 16.3 14.4 15 13.4 113.7 93.6 118.4 96.1 7.7 4.2 7.8 4.8 10.1 42.2 6.6 113.1 10.9 189.2 10.9 195.1 0 7.9 -1.7 10.9 -8.1 14.2 -2.2 1.1 -4.4 3 -4.9 4.2 -0.5 1.2 -8.2 29.9 -17.1 63.7 -28.7 109.7 -88.6 337 -93.9 355.9 -2.8 10.1 -5.7 19.6 -6.5 21.1 -3 5.9 7.2 5.5 -141.4 5.7 -75.1 0.1 -137.9 -0.2 -139.6 -0.6z m269.3 -37.8 c0.2 -1.2 -0.8 -5 -2.2 -8.5 -1.3 -3.5 -4.6 -11.7 -7.1 -18.3 -2.6 -6.6 -6.5 -16.7 -8.7 -22.4 -2.3 -5.8 -5.2 -11.6 -6.5 -12.9 -2.4 -2.4 -2.5 -2.4 -17.1 -1.8 -8.1 0.4 -45.7 1.3 -83.7 2.1 -64.7 1.4 -123.6 3.2 -124.2 3.9 -0.7 0.7 82.4 1.6 147.2 1.6 55 0 71.6 0.3 73.5 1.3 2 1 4.2 5.9 12.6 27.7 5.6 14.5 10.7 27.2 11.3 28.3 1.5 2.4 4.5 1.8 4.9 -1z m41.9 -162.3 c19.1 -72.3 34.9 -133.3 35.1 -135.6 0.3 -3.1 -1.6 -9.8 -8.2 -29.5 -13.9 -41.6 -15.5 -45.4 -17.5 -43.4 -0.6 0.6 -6.6 25.3 -13.5 55 -24.6 106.3 -41.5 179.1 -43.5 187.5 -4.8 19.5 -10.1 43.5 -10.1 45.3 0 1 4 11.9 8.9 24 4.9 12.2 9.2 23.3 9.6 24.7 1 3.3 2.6 5.3 3.6 4.3 0.5 -0.5 16.5 -60 35.6 -132.3z m-251 80.5 c1.8 -0.3 3.4 -1.3 3.7 -2.3 0.3 -0.9 1 -11.8 1.6 -24.2 0.6 -12.4 1.7 -33.1 2.4 -46 0.7 -12.9 1.1 -30.7 0.9 -39.5 -0.5 -15.5 -0.4 -16.1 1.8 -18.9 3.1 -4 13.3 -8.6 19 -8.6 8.7 0 16.2 2 23.2 6.2 7.9 4.7 8.8 4.4 8.6 -3.2 -0.2 -7.9 -0.1 -8.2 2.2 -7.8 3.7 0.5 6.1 5 6.8 12.7 0.4 3.9 1.2 7.6 1.8 8.2 0.7 0.7 3.5 1.5 6.3 2 6.7 1 16.1 -1.8 22.6 -6.7 10.1 -7.8 13.7 -8.9 19.3 -5.9 6.1 3.1 7 11.5 7.7 70.5 0.5 46.9 1.2 57.6 3.7 59.2 1.1 0.8 17.7 0.2 24.4 -0.8 2.7 -0.4 3.4 -1.1 4.2 -4.2 1 -3.7 14.4 -63 49.6 -219.1 10.2 -45.4 18.5 -83.5 18.5 -84.7 0 -1.5 -0.8 -2.5 -2.2 -3 -1.2 -0.3 -15.9 -0.3 -32.7 0.2 -16.8 0.5 -40 0.9 -51.6 1 -164.7 0.8 -258.7 1.8 -260.7 2.9 -1.9 0.9 -2.3 1.8 -2.1 5.6 0.1 2.4 0.7 6.4 1.3 8.9 0.6 2.5 1.5 6.1 2 8 0.5 1.9 1.3 5.5 1.9 8 1.3 6 6 25.6 7.1 30 0.5 1.9 1.4 5.9 2 8.8 0.5 2.8 1.4 7.3 2 10 0.5 2.6 5 21.1 9.9 41.2 4.9 20.1 16.9 69.7 26.6 110.2 9.7 40.6 18.2 75.5 18.9 77.5 1 2.9 1.9 3.9 4.1 4.3 3.5 0.6 40.8 0.2 45.2 -0.5z m301.9 -274.3 c1.7 -6.4 6.2 -22.9 9.9 -36.7 4.8 -17.6 6.8 -26.8 6.8 -31 0 -5.6 -17.3 -97.7 -19.5 -103.4 -0.6 -1.8 -1.2 -2.1 -2 -1.3 -1.4 1.4 -23.8 97.6 -23.8 102.3 0 2 0.9 6.2 2 9.5 1.2 3.2 3.7 12.2 5.6 19.9 6.1 23.8 14 51.9 15.1 53.8 1.2 1.9 3 -2 5.9 -13.1z m-353.1 -76.2 c13.2 -0.6 43.4 -1.4 67 -2 23.7 -0.5 59.9 -1.5 80.5 -2.1 20.6 -0.5 60.8 -1.3 89.2 -1.7 32.2 -0.4 52.1 -1.1 52.7 -1.7 1.6 -1.7 12.3 -50.7 11.3 -51.7 -0.6 -0.6 -3.7 0.5 -8.3 3.1 -10.4 5.6 -22.7 10.7 -34.3 14.2 -58.6 17.4 -154.4 21.5 -230.9 9.9 -36.3 -5.5 -68 -16.4 -82.1 -28 -12.1 -10 -16.7 -20.9 -13.6 -32 5.8 -21 40.4 -37.1 101.9 -47.6 11.3 -2 21 -4 21.6 -4.5 1.3 -1.2 -19.4 -1.1 -98.9 0.6 -39.6 0.8 -67.3 1.8 -67.9 2.4 -0.6 0.6 0 4.3 1.7 10.3 1.4 5.1 3.8 14.7 5.2 21.3 1.3 6.6 4.2 18.3 6.4 26 2.1 7.7 5.9 22.8 8.4 33.5 12 51.8 11.4 49.9 15 51 3.3 1 34.3 0.6 75.1 -1z m176.5 -49.4 c41.9 -4.6 70.7 -10.7 93.8 -19.6 14.9 -5.7 25.2 -14.2 23.6 -19.5 -1.3 -4.3 -7.2 -8.8 -18.9 -14.5 -27.3 -13.2 -61.4 -20.1 -110 -22 -13.2 -0.6 -26 -1.2 -28.5 -1.3 -7.3 -0.6 -39.8 1.2 -63.5 3.3 -58.2 5.4 -100.3 16.7 -115.6 31.1 -6 5.6 -6.3 8.4 -1.6 13.2 14.2 14.2 63.5 26.4 125.2 31.1 13.5 1 81.8 -0.3 95.5 -1.8z m-845 -45.1 c0 -2.2 0.8 -4.3 2 -5.5 1.8 -1.8 3.4 -2 17.3 -2.1 8.3 0 24.9 -0.2 36.7 -0.5 14.2 -0.4 23.9 -0.2 28.5 0.6 6.8 1.1 7.3 1.1 15.3 -1.9 20 -7.4 19 -8.6 -6.7 -7.7 -10.8 0.3 -25.9 1.1 -33.6 1.7 -7.7 0.5 -46.6 1.2 -86.4 1.5 -39.9 0.2 -72.9 0.8 -73.4 1.3 -0.5 0.5 1.1 1.6 3.5 2.6 3.8 1.6 8.6 1.9 41.3 2.3 20.3 0.2 37.9 0.8 39.1 1.3 1.4 0.5 2.5 2 2.9 4.1 1.3 6.5 1.4 6.7 5.8 7 6 0.5 7.7 -0.6 7.7 -4.7z m1039.9 -66 c-1.2 -23.1 -2.6 -43.1 -3.1 -44.4 l-0.9 -2.4 -29.7 0.7 c-16.3 0.3 -110.2 2.9 -208.7 5.6 -98.4 2.7 -197.2 5.4 -219.5 6 -22.3 0.5 -47.4 1.3 -55.7 1.6 -17.5 0.7 -17.1 0.4 -12.5 9.5 l2.7 5.4 32.5 -0.2 c17.9 -0.1 52.1 -0.7 76 -1.3 266.3 -6.8 323.1 -8.4 339 -9 10.2 -0.4 26.4 -0.8 36 -0.9 15.2 0 18.1 0.2 21.7 1.8 6.6 3.1 7.2 4.7 15.8 47.6 2.5 12.7 5.3 26.4 6.3 30.5 l1.7 7.5 0.3 -8 c0.2 -4.4 -0.6 -26.9 -1.9 -50z m-59 53.3 c1.9 -5.3 9.3 -40.8 8.8 -42.2 -0.8 -2 4.3 -2 -78.2 -0.1 -36.2 0.8 -66.3 1.9 -66.7 2.3 -0.9 0.9 7.3 2.3 24.7 4.2 12.2 1.4 50 9 62 12.5 17.1 5 33.2 13.1 42.5 21.4 2.5 2.2 4.8 4 5.3 4.1 0.4 0 1.1 -1 1.6 -2.2z m-1042.7 -15.7 c-0.4 -11.2 -5.4 -10.4 57.6 -10 61.5 0.4 57.1 -0.2 55.2 8.5 -1.4 6.2 -0.8 7.4 3.5 7.4 l3.5 0 0 -6.7 c0 -3.8 0.4 -7.3 0.8 -8 1.8 -2.9 7.2 -3.5 33.7 -3.8 33.3 -0.3 57.3 0.7 60.2 2.6 1.9 1.2 2.8 0.8 9.2 -3.4 3.9 -2.6 7.1 -5.1 7.1 -5.6 0 -1.7 -4.2 -1.8 -31.1 -0.8 -15.1 0.6 -35.7 1 -45.9 1 -10.2 -0.1 -68 -0.4 -128.5 -0.6 -60.5 -0.2 -114.4 -0.7 -119.9 -1.2 -11.4 -0.9 -12.1 -0.1 -4.4 5.1 l4.6 3.1 40.8 0.2 c27.8 0.1 41.2 0.5 42.1 1.3 0.9 0.7 1.3 3.6 1.3 8.8 0 4.2 0.3 8 0.7 8.4 0.4 0.4 2.8 0.6 5.3 0.4 l4.5 -0.3 -0.3 -6.4z m175.8 -30.3 c0 -7.2 1.6 -12.5 4.3 -14 1.6 -0.8 13.5 -1.3 42.2 -1.5 43.2 -0.4 42.5 -0.4 46.2 -5.9 1.4 -2.2 1.4 -2.7 0.2 -3.5 -1.7 -1.1 -38.1 -0.6 -62.9 1 -13.3 0.8 -26.5 0.8 -47 0.1 -15.7 -0.5 -58.4 -1.2 -95 -1.5 -36.6 -0.2 -83.5 -0.8 -104.2 -1.1 l-37.6 -0.6 -2.6 2.5 c-1.4 1.4 -2.6 3 -2.6 3.5 0 1.4 3.7 2.2 10.7 2.2 7.4 0 7.5 0 9.3 12.2 1.1 7 1.7 8.9 3.2 9.4 3.3 1 4.6 -1.2 5 -9.2 0.5 -11.1 0.4 -11 23.5 -11.9 17.5 -0.7 74.9 0.8 83.1 2.2 4.3 0.7 5.6 3.3 5.6 11.5 0.1 7.2 0.8 8.3 5 7.2 2.2 -0.5 2.3 -0.9 1.8 -7.9 l-0.5 -7.3 3.4 -1.8 c4.1 -2.2 16.8 -2.6 67.7 -1.7 38.7 0.7 35.3 -0.5 36 13.1 0.4 7.8 0.6 8.2 2.8 8.2 2.2 0 2.4 -0.4 2.4 -5.2z m-298.3 -24 c2.9 -2.7 2.9 -4.4 0.1 -5.2 -3.6 -0.9 -25.8 -0.7 -25.8 0.3 0 0.5 1.6 2.3 3.5 4 3.4 2.9 4 3.1 11.7 3.1 7 0 8.5 -0.3 10.5 -2.2z m252.8 -17 c0.6 -3.5 1.7 -6.3 2.8 -7 1.7 -1.2 1.7 -1.6 0.3 -4.2 -1.6 -3.1 -1.3 -4.4 2.3 -11.5 1.1 -2.1 3.4 -7.5 5.1 -11.8 1.7 -4.3 4.3 -10.7 6 -14.3 1.6 -3.6 4.8 -11.4 7 -17.5 2.3 -6 5.9 -15.7 8.1 -21.5 2.2 -5.8 5.7 -14.8 7.9 -20 2.2 -5.2 5.1 -12.6 6.4 -16.5 1.3 -3.8 4.1 -11.3 6.1 -16.5 4 -10.2 7.9 -20.8 18 -49.5 7.6 -21.6 15.4 -42.8 20.1 -54.7 1.9 -4.9 3.4 -9.3 3.4 -9.8 0 -0.6 2.3 -7 5.1 -14.3 2.8 -7.3 9.5 -26 15 -41.7 11 -31.5 11.2 -31.9 21.6 -47.3 7.5 -11.1 15.3 -24.9 15.3 -27.2 0 -2 -21.9 -25.3 -32.1 -34.1 -22.3 -19.1 -37.9 -29.5 -63.4 -42 -27.6 -13.5 -49.8 -20.9 -76 -25.5 -24.1 -4.1 -68.3 -4.1 -91 0.1 -55.3 10.3 -103.4 31.1 -139.4 60.3 -16.3 13.3 -44.8 43.2 -43.8 46.1 0.2 0.7 8.5 1.5 22.3 2.3 12 0.6 25.6 1.9 30.1 2.8 23.5 4.6 39.5 14 54.5 32.2 8.3 10 26.1 39.8 30.7 51.3 2 5 4.1 9 4.6 9 0.6 0 2 -3 3.2 -6.7 5.6 -16.5 20.3 -26.3 39.7 -26.3 13.9 0 25 4.5 33.9 13.9 13.1 13.7 15 28.7 6 46.5 -3.3 6.4 -11.6 14.7 -18.3 18.1 -17.5 8.8 -36.2 5.7 -52.5 -8.8 -3 -2.6 -5.6 -4.4 -5.8 -3.9 -0.3 0.4 -0.1 7.3 0.4 15.2 0.6 8 0.7 22.2 0.3 31.6 -0.6 16.6 0 21.4 2.5 21.4 0.5 0 3.1 -2 5.7 -4.5 7.7 -7.1 14.9 -10.4 25.1 -11.6 15.9 -2 25.8 0.2 37.7 8.2 7.8 5.3 16.1 14.9 20.4 23.5 6.6 13.2 9 37.1 5.3 54.1 -4.6 21.6 -9.9 33.3 -22.7 50.3 -13.9 18.4 -33.3 34.7 -58.9 49.4 -5.5 3.2 -10.3 6.3 -10.7 6.9 -0.9 1.4 0 6.7 1.4 8.5 1.3 1.5 16.4 1.7 17.3 0.2 0.3 -0.6 0.8 -3.6 1.1 -6.7 0.3 -3.2 0.8 -6.1 1.2 -6.5 1.9 -1.9 10.7 -2.3 32.2 -1.6 12.9 0.5 34.2 1.1 47.2 1.6 27 0.8 26.7 0.7 27.5 8.8 0.8 6.7 1.7 7.5 7.7 7.2 l5.1 -0.3 1 -5.7z m101.3 0.6 c0.2 -4 0.9 -5.7 2.8 -7.5 l2.6 -2.4 27.2 0.3 c25.3 0.3 27.5 0.2 29.2 -1.5 3.6 -3.6 17 -25.2 24 -38.8 44.7 -86.3 45.9 -187.2 3.4 -275 -10 -20.7 -28.7 -50.4 -31.7 -50.5 -1.7 0 -2.1 3.8 -2.8 25.9 -0.5 16.7 -0.9 20.4 -3 26.5 -1.3 3.9 -3.7 12.1 -5.4 18.1 -2.7 9.6 -11.6 36.4 -27.1 81.5 -2.4 6.9 -7.8 22.2 -12.1 34 -4.3 11.8 -9.9 27.4 -12.4 34.5 -2.6 7.2 -6.8 19.1 -9.5 26.5 -2.6 7.4 -9.1 24.7 -14.4 38.4 -5.3 13.7 -11.9 31 -14.7 38.5 -2.7 7.5 -5.8 15.6 -6.8 18.1 -5.1 12.2 -9 23.4 -8.5 24.2 0.3 0.5 11.9 0.8 26.6 0.7 21.1 -0.1 26.2 0.1 26.9 1.2 0.5 0.8 0.9 4 0.9 7.2 0 5.5 0.1 5.8 2.3 5.5 1.9 -0.3 2.2 -1 2.5 -5.4z m-338.8 -0.4 c0.4 -0.8 1.3 -3.7 1.9 -6.5 1.3 -5.5 4 -8.5 7.8 -8.5 5.1 0 8.6 -6.5 11.8 -22 1.4 -6.3 1.4 -8.9 0.4 -16.5 -0.7 -4.9 -1.2 -20 -1.3 -33.5 -0.1 -22.6 0.1 -25.1 2.2 -32.3 1.2 -4.3 3.5 -10.4 5.1 -13.5 3.1 -6.1 13.7 -17.2 21.5 -22.6 2.5 -1.7 4.6 -3.4 4.6 -3.8 0 -0.4 -1.9 -2 -4.2 -3.6 -6.8 -4.6 -13 -12 -19.2 -22.5 -10.9 -18.5 -14.7 -31.7 -16.6 -57.3 -1.4 -18.7 -3.3 -30.3 -6.5 -39.9 -8.2 -24.2 -18.9 -35.5 -46.8 -49.4 -22.9 -11.4 -27.7 -14.7 -31.1 -21 l-2.9 -5.5 -2.9 3.5 c-4.4 5.2 -22.1 41.8 -27.4 56.4 -14.2 39.8 -20.4 86.2 -16.9 126.3 1.7 20.1 2.6 26.1 6.1 42.2 7.7 36 22.5 71.6 42.7 102.8 5.9 9.2 6.1 9.4 9.1 8.7 8.4 -1.9 53 0.5 55.6 3 0.8 0.9 1.5 4.1 1.8 8.2 0.2 3.8 0.5 7.4 0.8 8.1 0.5 1.7 3.5 1.2 4.4 -0.8z m87.7 -20.7 c12.8 -15 28.6 -37.8 35 -50.8 6.8 -13.6 9.5 -21.7 9.6 -29.5 l0.2 -6.5 -8.6 -0.6 c-10.8 -0.7 -16.3 -3.3 -24.5 -11.4 -4.5 -4.4 -7.2 -8.3 -10 -14.2 -2.6 -5.4 -4.5 -8.3 -5.6 -8.3 -0.9 0 -4 2.7 -7 5.9 -7.2 8 -9.3 13.8 -9.1 26.1 0.8 59.8 0.8 58.3 -1.1 64.5 -0.9 3.3 -4.2 11 -7.2 17.1 -3 6.1 -5.4 11.4 -5.4 11.7 0 0.7 6.9 1.3 19.2 1.5 l9.6 0.2 4.9 -5.7z m193.1 -19.1 c0.4 -1.3 -12.8 -8.2 -15.8 -8.2 -4.2 0 -1.7 2.7 5.8 6.2 7.9 3.7 9.3 4 10 2z m2.2 -7.6 c0 -1.6 -14.7 -8.9 -16.1 -8 -1.7 1 0.2 2.5 7.4 6 8 3.8 8.7 4 8.7 2z m3 -7.6 c0 -1.9 -11.4 -8 -15 -8 -3.7 0 -2 2 4.8 5.4 6.8 3.5 10.2 4.4 10.2 2.6z m-460.7 -144.4 c4.2 -1.7 8.3 -6.6 9.8 -11.5 4.2 -14.2 -11.7 -26.9 -25 -20.1 -12.6 6.4 -13.2 22.7 -1.2 30.7 4 2.7 11.3 3.1 16.4 0.9z m-52.7 -25.4 c1.1 -0.9 3.7 -5.1 5.7 -9.3 4.5 -9.3 11.9 -16.7 21.4 -21.2 6.4 -3 7.4 -3.2 18.3 -3.2 12.8 0 16.7 1.2 26.2 8.1 5.2 3.7 7.8 3.9 7.8 0.5 0 -4.2 6.2 -27.3 12 -45.1 13.5 -41.2 35.2 -77.3 68.8 -114.6 8 -8.9 29 -28.4 40.6 -37.8 16 -12.9 45 -29.4 70.6 -40.4 23.3 -10 52.1 -18.3 74.5 -21.5 23.5 -3.4 27.8 -3.7 52.8 -3.7 27.2 0 27.6 -0.1 24.3 -4.6 -1.3 -1.8 -2.8 -1.9 -22.8 -1.9 -50.3 0 -322.4 2.6 -324 3.1 -0.9 0.3 -11.7 11.6 -24 25.2 -32.1 35.5 -110.2 121.1 -120.1 131.6 l-8.4 9 -26.4 0.2 c-44.3 0.4 -96.3 1.5 -98.1 2 -1 0.3 -1.8 1.1 -1.8 1.9 0 0.7 9.2 10.3 20.5 21.2 11.3 10.9 27.2 27 35.3 35.8 22.6 24.6 60.4 63.5 63.2 65 2 1.1 10.3 1.4 42 1.4 36 0.1 39.7 -0.1 41.6 -1.7z m1175.8 -53.6 c4.7 -1.9 7.6 -6.6 8.3 -12.9 0.7 -6.5 -1.3 -11.2 -6.3 -15.7 -3.1 -2.7 -4.1 -3 -10.2 -3 -7.7 0 -12 2 -15.3 7.2 -2.8 4.6 -2.3 14.2 1 18.4 5.3 6.8 14.6 9.3 22.5 6z m-560.6 -54.8 c0.8 -0.8 1.2 -4.5 1.2 -10 0 -10.6 -1.6 -13.1 -7.8 -12.6 -3.4 0.3 -4 0.9 -8.4 8.2 -2.7 4.4 -4.7 8.4 -4.5 9 0.2 0.5 3.8 1.9 8.1 3.2 4.2 1.2 8 2.5 8.3 2.8 0.9 0.9 1.8 0.7 3.1 -0.6z m559.1 -16.3 c11.1 -5.7 12.8 -20.8 3.4 -29.7 -10.3 -9.8 -26 -6.3 -30.3 6.8 -2.6 7.8 2 18.2 9.7 22.3 4.6 2.4 13.2 2.7 17.2 0.6z m-1497.4 -24.5 c22.6 -0.5 52.3 -1 66 -1.1 45.4 -0.1 166 -1.9 168.7 -2.5 1.8 -0.4 6.7 -5 15.5 -14.7 16.9 -18.8 88.4 -97.4 100.6 -110.7 5.3 -5.8 9.6 -11.2 9.4 -12 -0.3 -1.8 -25.2 -1.8 -166.4 -0.2 -60.5 0.7 -94.7 0.7 -109 0 -29.5 -1.4 -89.5 -0.6 -92.1 1.3 -1.2 0.8 -8.9 9.5 -17.2 19.4 -8.3 9.9 -18.2 21.4 -21.9 25.5 -3.7 4.1 -11.9 13.6 -18.2 21 -6.3 7.4 -18 21.2 -26 30.5 -28.5 33.4 -35.9 42.5 -35.9 44.1 0 1.4 4.3 1.5 42.8 0.9 23.5 -0.3 61.2 -1 83.7 -1.5z m1430.1 -4.5 c1.1 -4.5 -0.6 -15.2 -2.9 -18.2 -1.2 -1.5 -8.5 -10.4 -16.2 -19.8 -7.7 -9.3 -18.1 -21.9 -23 -27.9 -5 -6 -13.3 -16.2 -18.5 -22.5 -16.5 -20 -97.4 -114.9 -131.4 -154.1 -8.9 -10.2 -17.7 -20.5 -19.6 -23 -5.1 -6.7 -30.6 -34.3 -33 -35.8 -4.5 -2.8 -16 -2.7 -16 0.1 0 0.7 7.9 10.2 17.6 21.2 9.7 11 28.6 33.1 41.9 49 13.3 16 30.9 36.7 39 46 23.4 26.9 53.4 62.9 75.5 90.4 21 26.3 44.7 54.4 57.8 68.5 4.1 4.5 9.9 11.3 12.8 15.2 5.4 7.3 11.8 13.4 14.1 13.4 0.7 0 1.5 -1.1 1.9 -2.5z m267.1 -18.1 c8.7 -4.2 12 -16.1 6.9 -24.8 -8.9 -15.3 -32.6 -8.6 -32.6 9.1 0 12.7 14 21.2 25.7 15.7z m-903 -123.5 c11 -5.3 13.2 -19.2 4.4 -28 -6.1 -6.2 -13.2 -7.1 -21.1 -2.7 -12.3 6.7 -11.5 25 1.4 30.9 5.4 2.4 10 2.4 15.3 -0.2z m-305.9 -23.6 c55.4 -0.5 69.2 -0.9 69.2 -1.9 0 -1.3 -73.3 -68.6 -78.4 -72 -2.9 -1.8 -6.8 -1.9 -115 -2.7 -61.7 -0.4 -113.1 -0.5 -114.3 -0.2 -2.5 0.6 -72.6 74.6 -73.2 77.2 -0.3 1.5 9.7 1.6 121 1 66.8 -0.4 152.6 -1 190.7 -1.4z"/>
  <path d="M1746.5 835.4 c-11.9 -0.8 -34 -3.5 -43.4 -5.5 -24.5 -5 -36.1 -11.2 -36.1 -19.5 0 -4.8 0.8 -6.2 5.5 -9.4 20.1 -13.8 101.3 -22 178.5 -18 53.7 2.7 84 14.4 75.1 28.7 -5.5 8.8 -40.8 19.1 -77.1 22.4 -12 1.1 -90 2 -102.5 1.3z m84.5 -9.5 c8 -0.6 19.5 -1.7 25.5 -2.5 6.1 -0.8 16.4 -2.1 23 -2.9 20.5 -2.7 35.3 -7.2 37.9 -11.8 1.5 -2.5 -2.3 -5.5 -11.6 -8.9 -31.6 -11.7 -82.1 -13.8 -166.8 -6.9 -22.5 1.9 -53.1 9.3 -59.5 14.5 -4 3.3 -2.7 5.3 5 8.4 23.1 9.3 90.6 14 146.5 10.1z"/>
 </g>
</svg>