<?xml version="1.0" encoding="utf-8"?>
<!DOCTYPE svg PUBLIC "-//W3C//DTD SVG 20010904//EN" "http://www.w3.org/TR/2001/REC-SVG-20010904/DTD/svg10.dtd">
<svg version="1.0" xmlns="http://www.w3.org/2000/svg"  viewBox="0 0 2880 1800" preserveAspectRatio="xMidYMid meet">
 <g fill="#000000">
  <path d="M2426.9 1365.1 c-1.4 -0.5 -3.5 -1.3 -4.6 -2 -2.3 -1.2 -10.1 -12.4 -12.7 -18.1 -0.8 -1.9 -16.4 -61.5 -34.6 -132.5 -18.2 -70.9 -41.5 -161.6 -51.7 -201.5 -10.2 -39.9 -19.1 -73.1 -19.6 -73.8 -0.6 -0.8 -3.7 -2.7 -6.9 -4.3 -7.3 -3.7 -9.2 -6.7 -11.2 -17.8 -0.8 -4.7 -6.1 -34 -11.6 -65.1 -5.5 -31.1 -12.7 -71.3 -16 -89.5 -8.7 -48.5 -10 -57.1 -10 -66.4 0 -9.7 1.6 -13.1 8.4 -18.4 2.3 -1.8 34.7 -29.5 72.1 -61.7 37.3 -32.2 70.6 -60.6 73.9 -63.3 3.4 -2.6 7.6 -6 9.5 -7.5 l3.3 -2.7 -1.2 -28.8 c-1.2 -31.7 -1.3 -31.5 4.7 -35.4 2.4 -1.6 5.4 -1.8 24.3 -1.8 25.5 0 24.3 0.5 33.4 -12.9 l5.8 -8.7 -0.4 -36.7 c-0.4 -31.9 -0.6 -37.2 -2.1 -40.2 -0.9 -2 -6 -8.3 -11.3 -14 -5.2 -5.8 -12.6 -14.6 -16.4 -19.6 -3.8 -5 -9.3 -11.8 -12.3 -15 -2.9 -3.3 -9.7 -11.4 -15 -18.1 -10.5 -13.2 -30.6 -36.7 -65.2 -75.8 -25.8 -29.2 -49.7 -56.6 -75.5 -86.5 -10.2 -11.8 -23.7 -27.3 -30 -34.5 -22.2 -24.9 -48.7 -56 -51.2 -60 -1.4 -2.2 -7.8 -10.2 -14.2 -17.7 -8.9 -10.6 -12.3 -13.9 -14.8 -14.5 -5.4 -1.4 -985.9 0.2 -988.5 1.6 -1.2 0.6 -8.8 9.3 -16.9 19.4 -16.8 20.7 -34.3 41.8 -68.7 82.5 -13.1 15.6 -23.6 28.6 -23.2 29 0.4 0.4 25.5 0.6 55.8 0.5 l55.2 -0.2 6 -6.8 c3.3 -3.7 20.9 -22.7 39 -42.2 18.2 -19.6 35.4 -38.1 38.2 -41.2 6.6 -7 16.5 -13.6 21.8 -14.4 2.2 -0.3 59.2 -0.2 126.7 0.3 l122.6 0.9 3.4 2.4 c3.5 2.5 42.6 37.9 83.8 75.9 l24.4 22.5 66.4 -0.4 c36.6 -0.2 67.6 -0.7 69.1 -1 1.4 -0.4 3.1 -1.8 3.7 -3.2 4.6 -10.1 6.5 -13 11.1 -17.7 13.2 -13.3 37.9 -17.1 56 -8.6 7.4 3.5 17.1 13.1 20.5 20.4 7.7 16.3 5.8 39 -4.3 51.9 -2.6 3.3 -2.5 3.6 2.4 5.4 2.3 0.9 8.7 3.2 14.2 5.3 63.6 23.4 122 70.2 158.7 127.4 38 59.1 55.8 126.9 51.9 198 -4 72.3 -27.8 136.4 -70.6 190 -54 67.7 -130.8 110 -220 121.2 -15.4 1.9 -65 1.6 -80.5 -0.5 -39.1 -5.4 -73.2 -15.7 -106.1 -32.1 -40.1 -19.9 -72.5 -45.3 -103.8 -81 -14.3 -16.4 -16.1 -18.8 -25.6 -34.1 -22.8 -36.5 -36.6 -70 -45 -109.6 -3.3 -15.3 -6.5 -40.8 -6.5 -52 l0 -5.7 -6.2 2.6 c-4.4 1.7 -8.9 2.6 -15 3 -19.9 1.1 -34.7 -5.8 -44.4 -20.9 -5.4 -8.2 -8.9 -11.2 -12.2 -10.4 -2.6 0.6 -96.2 1.8 -272.7 3.5 -102.1 1 -193.8 2.1 -331 4 -37.9 0.5 -105.4 1.4 -150 2 -44.5 0.5 -89.1 1.2 -99 1.4 -9.9 0.3 -30.5 0.8 -45.9 1.2 l-27.8 0.7 -6.2 -6.9 c-3.3 -3.7 -8 -8.7 -10.2 -11.1 l-4.1 -4.3 -84.9 0 c-46.7 0 -100.6 -0.5 -119.8 -1 -26 -0.8 -35.2 -0.7 -36.2 0.1 -1.8 1.4 -1.8 113.9 0 259.3 l1.1 97 6.8 3.7 c9.2 4.9 15.1 10.9 19.5 19.8 l3.7 7.5 0 15 c0 15 0 15.2 -3.2 21.7 -4.5 9 -11.9 16.3 -21.2 20.8 l-7.6 3.6 -14 0 c-13.7 0 -14.2 -0.1 -20.7 -3.2 -7.4 -3.5 -15.7 -10.6 -19.5 -16.7 -8.5 -13.4 -9.3 -33.9 -1.8 -49.1 4.3 -8.9 11.1 -15.6 20.6 -20.4 l7.4 -3.8 0.6 -50.9 c0.3 -28 0.5 -51 0.5 -51.1 -0.1 -0.1 -4.8 5.8 -10.6 13 -5.7 7.3 -25.5 32 -44 55.1 -18.4 23 -34.8 43.5 -36.3 45.5 l-2.8 3.7 -0.6 58 c-0.3 31.8 -0.5 119.6 -0.3 194.9 0.2 105.5 -0.1 138.1 -1 141.8 -1.5 5.6 -7.3 11.9 -12.8 13.9 -2.4 0.8 -8.7 1.3 -18.2 1.3 -15 -0.1 -18.1 -0.8 -23.2 -5.3 -1.7 -1.4 -1.8 -31.6 -1.8 -607.7 l0 -606.2 4.4 -1.7 c15.4 -5.9 35.3 -4.5 47.5 3.3 5.8 3.7 6.4 4.6 93 128.2 32.6 46.6 60 84.9 60.9 85.1 1.8 0.5 245.8 -0.6 452.6 -2 l118.9 -0.8 6.7 -7.1 c3.6 -3.9 17.6 -20.8 31.1 -37.5 13.4 -16.6 60.8 -72.3 105.2 -123.6 l80.9 -93.2 21.4 0 c18.4 0 21.4 0.2 21.4 1.5 0 0.8 -13.4 16.9 -29.7 35.8 -16.4 18.8 -46.2 53.1 -66.2 76.2 -20.1 23.1 -46.9 53.9 -59.5 68.5 -12.6 14.6 -27.3 31.2 -32.6 37 -5.4 5.8 -15.6 17.5 -22.8 26 l-13 15.5 9.1 0.3 c11.4 0.4 13 0 15.3 -3.7 1.1 -1.6 50.5 -60.1 109.9 -130 l108 -127.1 648.1 0 648 0 3 3.2 c1.7 1.8 4.4 5.1 6 7.3 3.8 5.4 38.4 46.3 45.5 54 3.1 3.3 26.9 31.7 53 63 65.7 78.9 79.5 95.7 86.9 105.5 12.9 17.1 30 37 32.2 37.4 1.3 0.3 4.7 1 7.6 1.7 6.8 1.4 99 0.3 101 -1.3 0.7 -0.6 2.1 -3.1 3.2 -5.5 5.2 -11.7 15.3 -20.8 27.3 -24.5 5.8 -1.7 8.7 -2 19 -1.6 11.3 0.4 12.7 0.7 19 3.7 18.3 8.8 27.9 28.2 24.9 50.5 -3.7 27.8 -29.2 44.6 -58.4 38.5 -11.9 -2.5 -23.3 -10.6 -29.3 -20.8 -1.6 -2.8 -3.4 -5.2 -4 -5.4 -2.1 -0.7 -91.4 0.8 -92.1 1.6 -0.8 0.8 1.1 83.1 2.6 114.1 0.6 10.3 1.4 20.5 2 22.6 0.8 3 3.4 6 11.6 13.7 15.3 14.1 13.3 13.3 30.7 13.3 20.3 0 22.6 1.2 26 13 1.2 4 1.8 12.2 2.3 28.8 0.4 13.4 1.2 24.1 1.8 25.4 0.6 1.2 7.4 7.7 15.1 14.5 23.4 20.4 122.4 101.4 128.1 104.6 3.5 2 5.9 4.3 6.9 6.4 1.8 3.6 2.1 8.3 10 146.1 2.5 43.1 4.5 82.7 4.5 87.9 0 11.3 -1.2 14 -7.7 17.2 -2.4 1.1 -4.8 3.1 -5.3 4.3 -0.5 1.3 -10.7 39.4 -22.6 84.8 -11.8 45.4 -25.5 97.6 -30.4 116 -4.9 18.4 -18.2 68.8 -29.5 112 -19.6 74.6 -32.5 122.2 -34.4 127.2 -0.5 1.3 -1.9 3.2 -3.1 4.3 -2.2 2 -3.7 2 -142.4 2.2 -77 0.1 -141.3 -0.2 -142.7 -0.6z m307.7 -191.1 c10.2 -38.8 23.2 -88.2 29 -109.8 l10.3 -39.3 -8.4 -25.2 c-11.6 -35 -13.2 -38.8 -13.9 -35.7 -0.3 1.4 -6.5 27.9 -13.7 59 -7.1 31.1 -19.1 82.6 -26.5 114.5 -7.5 31.9 -15.3 65.7 -17.4 75 -2.1 9.4 -4.5 19.7 -5.3 23.1 -0.9 3.6 -1.1 6.7 -0.6 7.6 0.7 1.2 9.9 24 16 39.4 1 2.7 1.5 1.3 6.5 -17.6 3 -11.3 13.8 -52.2 24 -91z m-63.1 90.4 c-1.5 -1.2 -3.5 -1.4 -8.5 -1 -3.6 0.3 -14.1 0.7 -23.5 0.8 -16.1 0.2 -15.7 0.3 8 0.8 13.8 0.3 25.2 0.6 25.5 0.7 0.3 0.2 -0.4 -0.5 -1.5 -1.3z m-182.8 -25 c1.2 -0.3 2.5 -1.4 2.7 -2.3 0.3 -0.9 1 -11.7 1.6 -24.1 0.6 -12.4 1.5 -29.5 2.1 -38 0.6 -8.5 1 -26.3 1 -39.6 -0.1 -28 -0.3 -27.5 10.3 -32.5 5.2 -2.5 7.3 -2.9 14.6 -2.9 10.5 0 18.7 1.9 24.1 5.4 l4.1 2.8 -0.7 -3.2 c-0.4 -1.7 -0.4 -4.7 0 -6.6 l0.6 -3.5 5.1 0.3 c6.8 0.4 8.8 3.1 9.7 12.5 0.8 8.3 1.2 9 5.8 9.9 4.9 0.9 13.1 -1.8 18.9 -6.2 8.5 -6.5 10.5 -7.4 16.7 -7.4 6.9 0 11 1.9 12.5 5.7 2.5 6.1 3.3 20.8 3.8 66.3 0.5 41.9 1.2 57.2 2.9 58.8 0.6 0.6 17.4 0.3 20.2 -0.4 1.2 -0.3 2.4 -1.1 2.6 -1.8 0.3 -0.7 6.7 -28.7 14.2 -62.2 7.6 -33.5 22.8 -101.2 33.9 -150.4 17.3 -76.5 20 -89.6 18.7 -90.4 -0.9 -0.5 -17.5 -0.5 -41 0.1 -21.8 0.5 -43.6 1 -48.6 1 -99.7 0.3 -247.5 1.8 -249.2 2.4 -2.6 1 -2.9 3.1 -1.2 9.3 1.3 5.2 2.5 9.9 3.8 15.6 0.6 2.5 2.7 11.3 4.6 19.5 2 8.3 4 17 4.5 19.5 2.1 10.7 5.5 25.6 9.1 39.5 2.1 8.3 12.6 51.9 23.4 97 21 87.9 24 100 25.5 103.9 l1 2.6 20.2 0 c11.2 0 21.3 -0.3 22.5 -0.6z m301.1 -275.4 c1.1 -4.1 5.2 -19.4 9.2 -34 3.9 -14.6 7.2 -27.8 7.2 -29.5 0 -1.6 -2.6 -16 -5.7 -32 -3.1 -15.9 -7 -36.4 -8.8 -45.3 -2 -10.6 -3.4 -15.7 -3.9 -14.5 -0.4 1 -5.2 21.5 -10.8 45.7 l-10.1 43.8 2.5 7.7 c1.4 4.2 4.3 14.6 6.5 23.1 4.5 17.7 11.4 43 11.7 42.7 0.1 -0.1 1.1 -3.6 2.2 -7.7z m-2621.5 -60.4 c4.1 -1.7 9.3 -7.6 10.2 -11.4 1.3 -6 -5.3 -14.4 -12.4 -15.8 -4.6 -0.9 -11.3 3.4 -14.1 9 -2 4.2 -2 4.6 -0.5 8.2 2.1 5.1 4.2 7.3 9 9.5 4.8 2.2 3.9 2.2 7.8 0.5z m2266.7 -14.6 c12.9 -0.6 44 -1.4 69 -2 25 -0.6 59 -1.5 75.5 -2 16.5 -0.5 54.8 -1.2 85 -1.5 30.3 -0.3 56.4 -0.8 58.1 -1.1 2.3 -0.3 3.5 -1.2 4.2 -3.2 1.4 -3.7 9.4 -39.3 8.9 -39.8 -0.2 -0.2 -4.8 1.7 -10.3 4.2 -40.3 18.8 -116 28.8 -193.2 25.5 -63.5 -2.7 -105.6 -10.5 -135.7 -25.1 -20.5 -10 -29.5 -21.2 -29.5 -36.9 0 -8.2 1.1 -12.3 4.9 -18.3 8.6 -13.6 39.1 -27.7 77.1 -35.7 l14.5 -3 -19 0.5 c-10.4 0.3 -40.1 0.9 -65.9 1.4 -25.8 0.6 -47.1 1.1 -47.2 1.3 -0.2 0.2 0.4 2.5 1.2 5.2 0.8 2.8 3 12 4.9 20.5 1.8 8.5 4.7 20 6.3 25.6 1.7 5.5 3.9 14.3 5.1 19.5 1.1 5.1 4.1 18 6.6 28.4 2.5 10.5 5.5 22.9 6.6 27.7 2 8.3 2.2 8.8 5.2 9.7 3.4 1 27.5 0.7 67.7 -0.9z m178.5 -49.5 c35.3 -3.8 61.4 -8.9 83.3 -16 15.3 -5.1 24 -9.4 29.7 -14.8 l4 -3.9 -4.6 -4.2 c-10.1 -9.2 -39 -19.8 -67.9 -25 -26.1 -4.6 -42.3 -5.8 -82.5 -6 -31.7 -0.1 -40.2 0.2 -59.5 2.2 -59.4 5.9 -100 16.8 -116.1 31.1 -3.7 3.2 -4.1 4 -3.1 5.8 1.6 2.9 9.7 7.9 20 12.3 8.9 3.8 31.9 10.6 32.8 9.7 0.3 -0.3 -1 -0.8 -2.8 -1.2 -5.8 -1.3 -17.3 -7.1 -19.6 -10 -1.7 -2.2 -2.2 -4.1 -2.2 -9.2 0 -7.7 0.9 -9.6 5.8 -12.7 13.6 -8.6 48.8 -14.9 98.2 -17.7 31.1 -1.7 89.5 -0.7 110 2 25.7 3.4 43.5 8.8 49.6 15.2 3.8 3.9 4.5 12.8 1.5 17.6 -2.5 4 -12.7 9 -26.7 13.1 -29.2 8.7 -48.7 10.6 -109.4 10.6 -25 0.1 -50.9 -0.2 -57.5 -0.6 -15.4 -0.8 -6.2 0.7 16.5 2.7 21 1.9 79.7 1.3 100.5 -1z m-130.7 -3.2 c-1 -0.2 -2.6 -0.2 -3.5 0 -1 0.3 -0.2 0.5 1.7 0.5 1.9 0 2.7 -0.2 1.8 -0.5z m104.7 -13.3 c8.8 -0.6 21 -1.7 27 -2.5 6.1 -0.8 16.4 -2.2 23 -3 13.8 -1.8 25.4 -4.5 32.2 -7.5 4.4 -1.9 4.5 -2.1 2.7 -3.4 -1 -0.7 -5.2 -2.5 -9.3 -4 -31.8 -11.5 -77.6 -13.4 -159.6 -6.6 -22.6 1.8 -51.6 8.5 -58.8 13.5 -1.7 1.2 -1.3 1.5 3.5 3.3 12.1 4.5 36.8 8.4 64.9 10.2 28.6 1.8 45.5 1.8 74.4 0z m-2496 -56 c18.6 -23.9 39.4 -50.4 46.1 -58.7 6.8 -8.4 12.8 -16.3 13.5 -17.5 1.7 -3.3 0.7 -200.1 -1.1 -202.3 -1.1 -1.3 -7.5 -1.5 -47.1 -1.5 l-45.9 0 0 162.2 c0 89.2 0.2 161.9 0.4 161.7 0.2 -0.2 15.6 -20 34.1 -43.9z m1676.6 27.1 c0.3 -2.6 1.3 -4.9 2.4 -5.7 1.6 -1.2 0.9 -1.4 -6.1 -1.4 -5.6 0.1 -7.4 0.3 -6.2 1 0.9 0.6 1.9 2.5 2.3 4.3 1.3 6.5 1.5 6.8 4.3 6.5 2.4 -0.3 2.8 -0.9 3.3 -4.7z m37.2 -7.8 c-1.3 -0.2 -3.5 -0.2 -5 0 -1.6 0.2 -0.5 0.4 2.2 0.4 2.8 0 4 -0.2 2.8 -0.4z m62.7 -1.4 l4.5 -2 -11 0.6 c-6 0.3 -17.3 0.9 -25 1.3 l-14 0.7 17 0.5 c9.4 0.3 18.6 0.6 20.5 0.7 1.9 0.1 5.5 -0.7 8 -1.8z m885.4 -22.4 c2.2 -9.6 3.7 -17.8 3.4 -18.1 -0.3 -0.3 -19.8 0 -43.3 0.5 -23.6 0.6 -48 1.2 -54.4 1.2 -6.4 0.1 -10.2 0.4 -8.6 0.6 5.1 0.7 41.6 8.3 49.7 10.4 16.7 4.2 33 11.5 43.2 19.1 2.8 2.1 5.3 3.8 5.6 3.8 0.3 0 2.3 -7.9 4.4 -17.5z m-1047.3 3.7 c-0.4 -11.2 -5.9 -10.3 60.7 -10.1 48.2 0.2 57.5 0.4 57.9 1.6 0.4 1.1 0.9 1 2.4 -0.6 1.7 -1.8 3.7 -2.5 10.9 -3.4 1.4 -0.2 -5.4 -0.6 -15 -1 -21.4 -0.9 -187 -0.5 -183.8 0.5 1.3 0.3 15.4 0.6 31.4 0.7 21.1 0.1 29.3 0.4 30.2 1.3 0.7 0.7 1.2 4.2 1.2 8.8 0 8 0.4 9.3 2.9 8.8 1.1 -0.2 1.4 -1.7 1.2 -6.6z m222.5 -12.7 c1.7 -1.3 0 -1.4 -16 -1.5 -9.9 0 -17.6 0.3 -17.2 0.7 0.3 0.4 6.4 1 13.4 1.3 7 0.4 13.9 0.8 15.3 0.8 1.4 0.1 3.4 -0.5 4.5 -1.3z m-303.1 -0.5 c-2.9 -1.3 -10.4 -1.3 -8.5 0 0.8 0.5 3.5 0.9 6 0.9 3.4 0 4 -0.2 2.5 -0.9z m1181.8 -30.6 c-0.9 -16.4 -2 -31 -2.5 -32.3 l-0.9 -2.4 -25.7 0.7 c-14.1 0.4 -106.5 2.9 -205.2 5.6 -98.7 2.7 -198.2 5.4 -221 6 -22.8 0.6 -47.9 1.3 -55.7 1.6 l-14.2 0.6 1.9 3.9 2 3.8 18.2 0.3 c10.1 0.2 42.6 -0.3 72.3 -1 102.3 -2.4 333 -8.5 351 -9.2 9.9 -0.4 27.5 -0.8 39 -0.9 18.8 0 21.4 0.1 25.3 1.9 5.8 2.6 7.1 5.9 12.4 31.2 2.3 11.3 4.4 20.5 4.5 20.4 0.2 -0.2 -0.4 -13.7 -1.4 -30.2z m-1153.6 -2.4 c3.9 -3.1 42.8 -3.9 87.6 -1.6 15 0.7 25.1 1.6 25.8 2.3 0.6 0.6 1.5 2.6 1.9 4.5 0.7 3.1 0.8 3.1 0.9 0.6 0.1 -2 1 -3.2 3.4 -4.5 4 -2.2 27.8 -2.7 75.2 -1.6 l32 0.8 1.1 3.5 c1 3.1 1.2 3.2 1.8 1.2 1.4 -4.3 3.1 -4.5 45.4 -5 37.5 -0.4 40.5 -0.6 42.5 -2.3 2.2 -1.9 1.8 -1.9 -16.3 -1.5 -10.2 0.2 -27 0.9 -37.5 1.5 -14.3 0.9 -27 1 -51.5 0.2 -17.9 -0.6 -63.8 -1.3 -102 -1.6 -38.2 -0.2 -82.8 -0.8 -99.1 -1.1 -20.8 -0.5 -30.2 -0.3 -31.5 0.4 -1.5 0.9 -0.4 1.1 5.4 1.2 8.5 0 8.3 -0.2 10.4 12.5 l1.3 8 0.6 -7.9 c0.4 -6.4 0.9 -8.2 2.6 -9.6z m-71.2 -7 c0.4 -0.6 -2.1 -1 -6.7 -1 -5.1 0 -6.8 0.3 -5.8 1 2 1.3 11.7 1.3 12.5 0z m254.1 -19 c0.7 -3.6 1.3 -8.1 1.3 -10 0.1 -1.9 1.5 -6.4 3.2 -10 1.7 -3.6 4.4 -9.9 6 -14 1.6 -4.1 4.2 -10.4 5.9 -14 1.6 -3.6 4.8 -11.4 7 -17.5 10.5 -27.8 12.3 -32.5 15.6 -40.5 2 -4.7 4.8 -12.1 6.4 -16.5 1.5 -4.4 4.5 -12.3 6.5 -17.5 4.2 -10.6 8.6 -22.7 18 -49.5 6.5 -18.8 12.8 -35.9 19.5 -53.3 2.2 -5.6 4 -10.7 4 -11.3 0 -0.5 2.3 -6.9 5.1 -14.2 2.8 -7.3 9.8 -26.7 15.5 -43.2 l10.5 -30 9.3 -14 c5.1 -7.7 10.7 -16.5 12.4 -19.6 l3.2 -5.6 -10.3 -11.4 c-23.2 -25.6 -50.6 -46 -83.2 -62 -21.2 -10.3 -32.1 -14.6 -50.6 -19.9 -25.9 -7.3 -35.4 -8.5 -68.9 -8.5 -33.1 0.1 -38.8 0.8 -68.7 8.5 -64.3 16.7 -112.6 45.8 -150 90.6 l-4.1 5 21.6 1.2 c21.9 1.3 32.8 3 44.6 7.1 13.8 4.9 26.7 14.3 37.8 27.8 7.1 8.6 24.1 36.3 29.2 47.6 3.3 7.2 3.3 7.2 4 4 1.4 -6 8.6 -14.5 15.5 -18.2 8.8 -4.7 15 -6.1 26.6 -6.1 17.1 0 27.2 3.8 36.8 13.9 8.2 8.6 11.1 15.2 11.5 26.8 1.2 30.3 -20.9 51.2 -51.8 48.8 -8.8 -0.6 -17.8 -3.9 -24.5 -8.9 -1.6 -1.2 -3.4 -2.5 -4 -2.8 -0.7 -0.4 -1 8.5 -1 25.8 0 14.5 0.4 26.4 0.9 26.4 0.4 0 2.4 -1.4 4.3 -3 8.5 -7.5 21.6 -10.7 39.3 -9.7 11.2 0.6 17.3 2.7 26.4 8.8 7.8 5.3 16.1 14.9 20.4 23.5 6.4 12.8 9.2 41.2 5.7 58.4 -2.8 14.1 -8.1 29.1 -13.4 37.8 -12.2 20.3 -32.3 41.1 -51.8 53.4 -3.5 2.2 -6.3 4.1 -6.3 4.1 0 0.1 2.4 0.2 5.2 0.2 19.5 0.1 95.6 2.8 97.5 3.6 2.7 1 4.3 4.5 4.3 9.3 0 3.7 1.7 5.8 4.4 5.4 1.6 -0.2 2.3 -1.6 3.2 -6.8z m-122.3 -0.9 c0.4 -3 0.5 -5.6 0.3 -5.8 -0.7 -0.7 -13.6 7.1 -13.6 8.2 0 2.4 2.6 3.6 7.5 3.3 l5 -0.3 0.8 -5.4z m-109.2 -11.8 c1.3 -0.6 3.7 -1.5 5.3 -2 6 -1.7 12 -20.8 10.3 -32.8 -0.5 -3.3 -1 -18.8 -1 -34.5 -0.2 -26.9 -0.1 -28.9 2.1 -36.3 4.2 -14.7 9.5 -22.4 22.9 -33.4 l4.2 -3.5 -6.2 -5.8 c-6.9 -6.4 -16.6 -21.7 -21.7 -33.9 -4.1 -10 -6.7 -23.2 -8 -40.1 -1.4 -19.2 -3.2 -30.8 -6.5 -40.5 -8.2 -24.2 -18.4 -35 -46.8 -49.4 -20.6 -10.5 -27.6 -14.8 -29.6 -18.2 -0.9 -1.6 -2 -2.7 -2.6 -2.6 -1.6 0.6 -17.2 31.6 -22.4 44.8 -22.1 56.1 -27.1 113.9 -14.7 171.2 8.3 37.8 23.9 74.9 45.5 107.7 l2.4 3.5 16.6 0.3 c22.4 0.4 41.3 2 42.9 3.6 0.8 0.7 1.6 3.3 1.9 5.7 l0.6 4.4 1.2 -3.5 c0.7 -2 2.2 -4 3.6 -4.7z m365.4 4.5 c25.2 0.3 27.4 0.2 29.1 -1.5 4.2 -4.2 17.5 -26 25.4 -41.8 20.5 -40.5 31 -81.8 32.7 -127.2 1.5 -43.4 -8.8 -92.1 -28.6 -134.7 -9.1 -19.5 -27.8 -50 -29.1 -47.5 -0.4 0.8 -1.1 9.9 -1.5 20.3 -0.5 15 -1.1 19.9 -2.6 23.8 -1 2.6 -3 9.2 -4.4 14.5 -1.3 5.4 -7.4 24.2 -13.4 41.8 -6 17.6 -12.8 37.6 -15.1 44.5 -2.3 6.9 -7.8 22.2 -12 34 -4.3 11.8 -12.1 33.4 -17.3 48 -8.3 23.2 -15.2 41.7 -24.4 65 -2.2 5.6 -9.3 24.5 -19.3 51 -1.5 4.1 -3.1 8.3 -3.5 9.4 -0.8 1.8 0.1 1.8 24.8 1.5 19.4 -0.3 25.9 -0.1 26.8 0.8 1 1 1.7 0.9 3.2 -0.5 1.7 -1.5 4.4 -1.7 29.2 -1.4z m-283.8 -11.5 c23.5 -27.5 43.3 -61.6 44.5 -76.9 l0.3 -3.9 -8.6 -0.6 c-6 -0.4 -10.1 -1.3 -13.5 -2.9 -7.2 -3.5 -16.4 -13.1 -20.6 -21.7 l-3.7 -7.3 -4.3 5 c-6.9 7.8 -8.4 13.2 -7.8 27 0.3 6.3 0.5 21.6 0.4 34 -0.1 25.2 -0.5 27.7 -7.5 42.8 -2.1 4.6 -3.9 8.6 -3.9 8.8 0 0.4 6.7 1 13.7 1.2 l6.1 0.2 4.9 -5.7z m-263 -178.4 c4 -1.5 7.3 -4.8 9.4 -9.4 1.6 -3.5 1.6 -4.2 0.3 -7.4 -2 -4.7 -4.7 -7.5 -9.5 -9.6 -3.7 -1.7 -4.1 -1.7 -7.8 0 -4.8 2.1 -7.5 4.9 -9.5 9.6 -1.3 3.2 -1.3 3.9 0.3 7.4 2.1 4.5 5.4 7.9 9.1 9.4 3.3 1.3 4.3 1.3 7.7 0z m-758.7 -18 c372.9 -3.1 517.7 -4.6 539.7 -5.7 l14.2 -0.7 -20.5 -21.2 -20.4 -21.1 -6.3 -0.7 c-3.4 -0.3 -22.8 -0.1 -43.2 0.4 -39.5 1.2 -114.5 2.2 -351 4.5 -227 2.3 -298.6 2.8 -315.1 1.9 l-15.2 -0.8 7.8 10 c4.2 5.5 11.4 15 15.9 21 4.5 6.1 8.9 11.8 9.7 12.8 1.4 1.7 3.3 1.8 31.7 1.2 16.6 -0.3 85.3 -1 152.7 -1.6z m706.6 -7.7 c1.2 -0.9 3.5 -4.7 5.2 -8.5 4.3 -9.3 11.6 -16.8 21.1 -21.5 l7.5 -3.7 14.5 0 c13.9 0 14.9 0.1 20.6 2.8 3.3 1.5 6.7 3.5 7.7 4.4 1 0.9 2 1.4 2.2 1.2 0.2 -0.2 1.7 -6.2 3.4 -13.4 3 -12.5 11.7 -40.2 16.1 -51.4 3.1 -7.7 12.4 -26.1 18.8 -37.1 19.5 -33.4 49.9 -68.1 83.8 -95.5 21.3 -17.3 61.9 -38.5 94.5 -49.5 15.4 -5.2 41.7 -11.5 54 -13 5.2 -0.6 12 -1.5 15 -2 3.1 -0.5 -18 -0.6 -49 -0.4 -30 0.2 -94.5 0.7 -143.3 1 -48.9 0.3 -89.5 0.8 -90.3 1.1 -0.7 0.2 -9.1 9.1 -18.6 19.6 -27.2 30.1 -115.8 127.2 -125.2 137.2 l-8.4 9 -27.4 0.2 c-15 0.1 -42.8 0.5 -61.8 0.9 l-34.5 0.6 22.2 21.7 c12.2 11.9 27.9 27.9 34.9 35.6 19.7 21.5 56.6 59.5 59.4 61 2 1.1 9.7 1.4 39 1.4 33.1 0.1 36.7 -0.1 38.6 -1.7z m-978.5 -19.1 c-6.5 -8.6 -9.9 -12.2 -12.3 -13.2 -2.6 -1 -25.6 -1.4 -103.3 -2 -55 -0.5 -126.5 -1.2 -159 -1.7 -43.2 -0.7 -59.3 -0.6 -60.2 0.2 -0.7 0.7 -1.3 5.5 -1.5 12 -0.2 8.9 0 11 1.2 11.7 2.3 1.1 92.3 2.9 155.5 3.1 30.8 0 70 0.4 87 0.7 17.1 0.4 46.9 0.8 66.3 0.9 l35.3 0.2 -9 -11.9z m2154.5 -34.7 c3.8 -1.8 6.8 -5.5 7.8 -9.7 1.5 -6.2 -6.5 -15.7 -13.2 -15.7 -7.5 0 -14.8 7.3 -13.8 13.9 0.6 3.7 4.2 8.2 9.1 11.2 3.7 2.3 5.7 2.4 10.1 0.3z m-1873.6 -31.9 c132.3 -1.3 286.6 -3 343 -3.6 56.4 -0.6 105.4 -0.8 108.9 -0.5 l6.5 0.7 -13.3 -13 c-11.7 -11.4 -13.8 -13.1 -17.4 -13.6 -2.3 -0.4 -19 -0.1 -37.2 0.5 -18.1 0.6 -47.8 1.5 -66 2 -40.7 1.1 -359.2 2.9 -691.5 3.8 l-249.5 0.7 -0.3 10.4 c-0.2 6.5 0.1 10.8 0.8 11.5 1.6 1.6 114.8 3.1 257 3.3 76 0.2 204.7 -0.6 359 -2.2z m1314 -29.3 c0 -5.6 -1.2 -8.8 -3.7 -9.4 -0.7 -0.2 -3 2.4 -5.2 5.7 l-4 6 5.2 1.7 c7.8 2.5 7.7 2.5 7.7 -4z m559.1 -10.5 c4.4 -2.9 7.9 -8.2 7.9 -11.9 0 -5.7 -5.3 -12.4 -12.2 -15.3 -3.4 -1.4 -4.2 -1.4 -7.5 0 -5 2.1 -7.2 4.2 -9.3 8.9 -1.3 2.8 -1.6 4.7 -0.9 6.8 1.9 6.8 9.9 13.7 16 13.8 1.4 0 4.1 -1 6 -2.3z m-1499.6 -23.7 c24.2 -0.6 71.9 -1.2 106 -1.5 71.8 -0.5 124.6 -1.4 129.2 -2.1 2.5 -0.4 5.5 -3.1 15.5 -14.2 6.7 -7.5 32.6 -35.9 57.3 -63.1 24.8 -27.2 46.3 -51 48 -52.9 l2.9 -3.5 -40.4 0.7 c-117.5 2 -211.2 2.6 -233.5 1.5 -22.3 -1.1 -81.3 -0.7 -84.6 0.5 -0.8 0.4 -4.4 4.1 -8 8.4 -13.8 16.5 -35.5 41.8 -37 43.2 -1.7 1.6 -66.7 78 -70.8 83.2 -1.3 1.7 0.5 1.8 35 1.3 20 -0.3 56.2 -1 80.4 -1.5z m1430.8 -9.2 c-0.6 -5.3 -1.2 -6.2 -18.8 -27.3 -13 -15.7 -19.6 -23.7 -39.4 -47.9 -14.5 -17.6 -99.2 -117 -133.6 -156.6 -8.8 -10.2 -17.3 -20.2 -18.8 -22.2 -3.6 -4.9 -25.8 -29.3 -30.8 -33.9 -3.4 -3.2 -8.6 -5.5 -9.8 -4.4 -0.2 0.2 3.7 4.8 8.5 10.2 12.2 13.4 29.3 33.4 52.6 61.3 10.7 12.9 26.2 31.2 34.3 40.5 23.4 26.9 53.4 62.8 75.5 90.4 20.9 26.1 44.6 54.3 57.8 68.5 4.1 4.5 9.3 10.6 11.5 13.6 4.7 6.4 9.8 12 10.8 12 0.4 0 0.5 -1.9 0.2 -4.2z m267.7 -13.8 c4.4 -2.2 7.7 -6.5 8.6 -10.9 1.6 -7.6 -9.6 -17.7 -16.8 -15.2 -4.3 1.5 -9.5 6.7 -10.9 10.8 -1.5 4.8 1.8 11.4 7.4 14.8 5.1 3 6.6 3.1 11.7 0.5z m-2586.2 -37.6 c-1.8 -2.5 -4.7 -6.3 -6.5 -8.3 l-3.2 -3.8 -45.2 -0.7 c-33.3 -0.5 -45.5 -0.3 -46.5 0.5 -1.8 1.5 -1.9 14 -0.2 15.7 0.9 0.9 14.1 1.2 53.1 1.2 l51.8 0 -3.3 -4.6z m-35.1 -50.1 c-2.9 -4.1 -61.3 -87.4 -66 -94.3 -1.6 -2.3 -1.7 0.2 -1.7 46.7 0 43.4 0.2 49.3 1.6 50.7 1.3 1.4 6 1.6 35.6 1.6 l34 0 -3.5 -4.7z m1657.6 -29 c-4.5 -0.2 -12.2 -0.2 -17 0 -4.8 0.1 -1.1 0.3 8.2 0.3 9.4 0 13.3 -0.2 8.8 -0.3z m59.2 -5.8 c2 -0.8 4.9 -2.9 6.5 -4.7 5.5 -6 4.9 -13 -1.6 -18.8 -6.1 -5.3 -10.8 -5.2 -17 0.2 -2 1.8 -4.3 4.7 -5.1 6.5 -1.1 2.8 -1.1 3.8 0.2 7 2.1 5 4.2 7.2 9 9.4 4.8 2.2 3.9 2.2 8 0.4z m-290.7 -24.4 l51.3 -0.6 -35.7 -32.5 c-19.6 -17.9 -36.9 -33.3 -38.3 -34.2 -3.6 -2.3 -17 -2.6 -132.5 -3.3 l-91.9 -0.6 -8.6 8.8 c-7.2 7.3 -46.2 48.8 -57.5 61.1 l-3.1 3.4 132.5 -0.7 c72.9 -0.4 155.6 -1 183.8 -1.4z"/>
 </g>
 <g fill="#ffffff">
  <path d="M0 1527.3 l0 -272.8 2.6 3.3 c4.7 6 9.4 7.5 22.4 7.6 7.1 0.1 12.9 -0.4 15.2 -1.2 5.5 -2 11.3 -8.3 12.8 -13.9 0.9 -3.7 1.2 -36.8 1 -143.8 -0.2 -76.4 0 -164.1 0.2 -194.8 l0.5 -55.8 2.9 -3.9 c1.6 -2.1 13.7 -17.2 27 -33.7 13.2 -16.4 33.4 -41.7 44.9 -56.3 24.5 -31.1 23.2 -29.7 24.4 -28.5 0.6 0.6 0.7 22.6 0.3 56.9 l-0.7 55.9 -7.4 3.8 c-9.5 4.8 -16.3 11.5 -20.6 20.4 -5.6 11.4 -6.4 23.5 -2.2 35.1 3.7 10.1 12.7 19.6 23.5 24.7 6.3 3 7.4 3.2 17.7 3.2 10.6 0 11.3 -0.1 18.6 -3.6 9.3 -4.5 16.7 -11.8 21.2 -20.8 3.1 -6.3 3.2 -7.1 3.2 -18.7 0 -11.8 -0.1 -12.1 -3.7 -19.5 -4.4 -8.9 -10.3 -14.9 -19.5 -19.8 l-6.8 -3.7 -1.1 -97 c-0.7 -53.3 -1.2 -134.5 -1.3 -180.5 -0.1 -72 0.1 -83.8 1.4 -84.9 1.1 -0.9 10.5 -0.9 42.2 0 22.4 0.6 48 1.1 56.8 1 8.8 -0.1 45.7 -0.1 82 -0.1 l66 0.1 6 6.7 c3.3 3.7 7.9 8.7 10.3 11.1 l4.2 4.5 20.3 -0.7 c29.7 -1 55.2 -1.5 145.7 -2.6 44.8 -0.6 112.6 -1.5 150.5 -2 136.6 -1.9 228.8 -3 331.5 -4 172.2 -1.6 266.1 -2.9 273.5 -3.6 8.5 -0.8 10.3 0.3 16.9 10.5 12.7 19.7 36.4 26.4 57.2 16.1 3.5 -1.7 6.8 -2.8 7.4 -2.5 0.5 0.3 1 3.4 1 6.8 0 11.7 3.1 37 6.5 52.6 8.4 39.6 22.2 73.1 45 109.6 9.5 15.3 11.3 17.7 25.6 34.1 56.2 64.2 125.4 101.5 209.9 113 15.4 2.1 59.3 2.4 74.5 0.5 89 -11 166 -53.4 220 -121.1 42.5 -53.2 66.6 -117.8 70.5 -188.5 4.1 -75.1 -18.9 -150.8 -64.4 -211.5 -36.7 -49.1 -89.5 -88.6 -146.1 -109.4 -5.5 -2.1 -13 -4.9 -16.7 -6.3 l-6.7 -2.6 4 -4.6 c16 -18.1 15.3 -43.8 -1.5 -60.7 -7 -7 -14.3 -10.8 -23.8 -12.4 -13.4 -2.4 -28.4 2.5 -38.1 12.2 -4.6 4.7 -6.5 7.6 -11.1 17.7 -0.6 1.4 -2.3 2.8 -3.7 3.1 -1.4 0.4 -33.8 0.9 -72 1.1 l-69.5 0.4 -24.4 -22.5 c-41.2 -38 -80.3 -73.4 -83.8 -75.9 l-3.4 -2.4 -120.1 -0.9 c-66.1 -0.4 -121.8 -0.6 -123.7 -0.3 -4.9 0.9 -15.1 7.7 -21.3 14.4 -2.8 3.1 -20 21.6 -38.2 41.2 -18.1 19.5 -35.7 38.5 -39.1 42.3 l-6 6.8 -59.7 0.1 c-41.5 0.2 -59.9 -0.1 -60.7 -0.9 -1.3 -1.3 -2.3 -0.1 27 -34.9 35.7 -42.4 52.1 -62.2 68.4 -82.2 8.1 -10.1 15.7 -18.8 16.9 -19.4 2.6 -1.4 989.2 -3 994.5 -1.6 2.5 0.6 5.9 3.9 14.8 14.5 6.4 7.5 12.8 15.5 14.2 17.7 2.5 4 29 35.1 51.2 60 6.3 7.2 19.8 22.7 30 34.5 25.8 29.9 49.7 57.3 75.5 86.5 34.6 39.1 54.7 62.6 65.2 75.8 5.3 6.7 12.1 14.8 15 18.1 3 3.2 8.5 10 12.3 15 3.8 5 11.2 13.8 16.4 19.6 5.3 5.7 10.4 12 11.3 14 1.5 3.1 1.8 8.4 2.1 43.2 l0.4 39.7 -5.8 8.7 c-9.1 13.3 -7.9 12.9 -33.6 13 -32 0.2 -30.1 -2.3 -28.6 36.9 l1.1 28.9 -3.4 2.8 c-1.9 1.5 -6.1 4.9 -9.5 7.5 -3.3 2.7 -36.6 31.1 -73.9 63.3 -37.4 32.2 -69.8 59.9 -72.1 61.7 -2.3 1.8 -5.1 4.8 -6.3 6.6 -3.7 6 -3.3 9.8 7.9 72.2 3.3 18.2 10.5 58.4 16 89.5 5.5 31.1 10.8 60.4 11.6 65.1 2 11.1 3.9 14.1 11.2 17.8 3.2 1.6 6.3 3.5 6.9 4.3 0.5 0.7 9.4 33.9 19.6 73.8 10.2 39.9 33.5 130.6 51.7 201.5 18.2 71 33.8 130.6 34.6 132.5 3 6.7 10.6 17.1 13.7 18.8 3 1.6 12.3 1.7 141.8 1.7 137.3 0 138.7 0 140.9 -2 1.2 -1.1 2.6 -3 3.1 -4.3 1.9 -5 14.8 -52.6 34.4 -127.2 11.3 -43.2 24.6 -93.6 29.5 -112 4.9 -18.4 18.6 -70.6 30.4 -116 11.9 -45.4 22.1 -83.5 22.6 -84.8 0.5 -1.2 2.9 -3.2 5.3 -4.3 5.9 -2.9 7.7 -6.2 7.7 -14.2 0 -3.6 -2 -41.8 -4.5 -84.9 -7.9 -137.8 -8.2 -142.5 -10 -146.1 -1 -2.1 -3.4 -4.4 -6.9 -6.4 -5.7 -3.2 -104.7 -84.2 -128.1 -104.6 -7.7 -6.8 -14.5 -13.3 -15.1 -14.5 -0.6 -1.3 -1.4 -12 -1.8 -25.4 -0.5 -16.6 -1.1 -24.8 -2.3 -28.8 -3.4 -11.8 -5.7 -13 -26 -13 -17.4 0 -15.4 0.8 -30.7 -13.3 -8.2 -7.7 -10.8 -10.7 -11.6 -13.7 -1.3 -4.7 -2.6 -32.4 -3.9 -80 -1.5 -53 -1.6 -61.8 -0.7 -62.7 0.8 -0.8 96.2 -2.3 98.1 -1.6 0.6 0.2 2.4 2.6 4 5.4 9 15.3 28.1 24.2 45.1 21 35.5 -6.5 49.2 -49.3 23.9 -74.6 -8 -8 -16.5 -11.7 -28.1 -12.3 -7.4 -0.4 -10.5 -0.1 -16.1 1.6 -12 3.7 -22.1 12.8 -27.3 24.5 -1.1 2.4 -2.5 4.9 -3.2 5.5 -2 1.6 -100.1 2.8 -106.9 1.3 -3 -0.7 -6.4 -1.4 -7.7 -1.7 -2.2 -0.4 -19.3 -20.3 -32.2 -37.4 -7.4 -9.8 -21.2 -26.6 -86.9 -105.5 -26.1 -31.3 -49.9 -59.7 -53 -63 -7.7 -8.3 -41.7 -48.6 -46.7 -55.5 -2.2 -3 -4.8 -6.1 -5.8 -6.9 -0.9 -0.8 -2.2 -2.3 -2.7 -3.3 -0.9 -1.7 7.4 -1.8 262.1 -1.8 l263 0 0 900 0 900 -1440 0 -1440 0 0 -272.7z"/>
  <path d="M2695 1325.3 c-0.7 -1 -5.7 -13.7 -11.3 -28.3 -8.4 -21.8 -10.7 -26.7 -12.7 -27.7 -1.9 -1 -18.2 -1.3 -72.1 -1.3 -63.8 0 -148.3 -0.9 -147.6 -1.6 0.6 -0.6 59.5 -2.5 124.2 -3.9 38 -0.8 75.4 -1.8 83.2 -2.1 14 -0.6 14.2 -0.6 16.6 1.8 1.3 1.3 4.2 7.1 6.5 12.9 2.2 5.7 6.1 15.8 8.7 22.4 2.5 6.6 5.8 14.8 7.1 18.3 1.4 3.5 2.4 7.3 2.2 8.5 -0.4 2.8 -3.4 3.4 -4.8 1z"/>
  <path d="M2703.6 1291.9 c-0.9 -1.9 -4.3 -10.4 -7.6 -18.9 -3.3 -8.5 -7.5 -18.8 -9.2 -22.8 -3.8 -8.9 -5 -1.8 13.7 -81.7 7.2 -31 35.9 -154.3 43.6 -188 3.3 -14.3 6.4 -26.4 7 -27 1.9 -1.9 4.3 3.9 17.5 43.5 6.5 19.4 8.5 26.5 8.2 29.5 -0.2 2.2 -6.4 26.5 -13.7 54 -7.3 27.5 -22.9 86.7 -34.7 131.5 -11.8 44.8 -21.9 81.9 -22.4 82.4 -0.5 0.5 -1.5 -0.4 -2.4 -2.5z"/>
  <path d="M2442 1240.4 c-1.5 -3.9 -4.5 -16 -25.5 -103.9 -10.8 -45.1 -21.3 -88.7 -23.4 -97 -3.6 -13.9 -7 -28.8 -9.1 -39.5 -0.5 -2.5 -2.5 -11.2 -4.5 -19.5 -1.9 -8.2 -4 -17 -4.6 -19.5 -0.6 -2.5 -1.4 -6.1 -1.9 -8 -0.5 -1.9 -1.4 -5.5 -2 -8 -0.6 -2.5 -1.2 -6.5 -1.3 -8.9 -0.2 -3.8 0.2 -4.7 2.1 -5.6 2 -1.1 62.7 -1.8 262.2 -2.9 11.8 -0.1 34.8 -0.5 51 -1 16.3 -0.5 30.6 -0.5 31.8 -0.2 1.4 0.5 2.2 1.5 2.2 3 0 1.2 -9.5 44.2 -21 95.6 -11.6 51.4 -26.7 118.5 -33.6 149 -15.7 69.6 -13.7 62.8 -17.7 63.4 -6.6 1 -23.2 1.5 -24.4 0.8 -2.5 -1.6 -3.2 -12.4 -3.7 -59.2 -0.6 -58.9 -1.6 -67.4 -7.7 -70.5 -4.5 -2.4 -8.2 -1.8 -13.5 1.9 -9.2 6.5 -13 8.5 -18.3 9.9 -5.6 1.4 -14.5 0.7 -16.5 -1.3 -0.6 -0.6 -1.3 -4.2 -1.7 -8.1 -0.7 -7.7 -3.1 -12.2 -6.8 -12.7 -2.3 -0.4 -2.4 -0.1 -2.2 7.8 0.2 7.6 -0.7 7.9 -8.6 3.3 -11.7 -7 -23.7 -8.2 -33.9 -3.4 -10.6 5 -10.4 4.5 -10.3 32 0.1 13 -0.3 30.8 -1 39.6 -0.6 8.8 -1.5 26.1 -2.1 38.5 -0.6 12.4 -1.3 23.2 -1.6 24.1 -0.7 2.6 -3.4 2.9 -28.2 2.9 l-23.2 0 -1 -2.6z"/>
  <path d="M2786.2 979.3 c-1.1 -2 -10.4 -35.1 -15.1 -53.8 -1.7 -6.6 -3.9 -14.7 -5.1 -17.9 -1.1 -3.3 -2 -7.4 -2 -9.3 0 -3.6 21.3 -97.2 23.1 -101.2 0.6 -1.5 1.3 -2.1 2 -1.4 0.5 0.5 2.9 11 5.4 23.4 12.5 63.4 15.6 80.6 15.1 84.1 -0.3 2 -3.8 15.5 -7.7 30 -3.9 14.4 -8.3 31 -9.8 36.7 -2.7 10.5 -4.1 12.8 -5.9 9.4z"/>
  <path d="M157.5 906.1 c-4.8 -2.2 -6.9 -4.4 -9 -9.4 -3.3 -8 -0.4 -16.9 7.1 -21.3 3.8 -2.2 5.4 -2.6 10.3 -2.2 6.9 0.5 11.3 3.2 14.1 8.8 7.7 15 -7.4 31.1 -22.5 24.1z"/>
  <path d="M2364.3 893 c-3 -1 -3.2 -1.5 -5.2 -9.8 -1.1 -4.8 -4.1 -17.2 -6.6 -27.7 -2.5 -10.4 -5.4 -23 -6.5 -28 -1.1 -4.9 -3.6 -14.4 -5.5 -21 -1.9 -6.6 -4.6 -17.6 -6 -24.5 -1.5 -6.9 -3.8 -16.5 -5.2 -21.3 -1.7 -5.8 -2.3 -9.1 -1.6 -9.8 0.6 -0.6 27.3 -1.5 68.4 -2.4 80.2 -1.7 99.7 -1.8 98.4 -0.6 -0.6 0.6 -9.3 2.4 -19.4 4.1 -24.8 4.1 -37.9 7.2 -53.9 12.5 -30.2 10.1 -46.3 21.5 -50.2 35.5 -7.5 26.9 29 49.8 95.7 60 58.9 8.9 132.8 8.7 188 -0.5 33 -5.6 52.3 -11.2 72 -21.1 7 -3.5 13.1 -6 13.6 -5.5 0.8 0.8 -8.3 43.8 -10.5 49.3 -0.7 2 -1.9 2.9 -4.2 3.2 -1.7 0.3 -27.8 0.8 -58.1 1.1 -30.2 0.3 -68.5 1 -85 1.5 -16.5 0.5 -50.5 1.4 -75.5 2 -25 0.6 -55.8 1.4 -68.5 2 -38.8 1.6 -70.8 2 -74.2 1z"/>
  <path d="M2509.8 843.5 c-49.9 -4.4 -90.6 -14.2 -109.7 -26.4 -5.4 -3.5 -8.1 -6.9 -8.1 -10.2 0 -5.3 15.1 -15.3 32 -21.4 35.5 -12.7 110.4 -21.3 167.5 -19.3 56.3 2.1 91.5 8.3 120.2 21.5 12.5 5.7 19.8 10.8 21.4 15 4.6 12.1 -32.5 27.6 -85.9 35.8 -31 4.7 -43.9 5.7 -83.7 6 -26.6 0.3 -42.7 0 -53.7 -1z m105.2 -9.9 c18.3 -1.9 27.3 -3.6 43.5 -8.3 15.5 -4.4 26 -9.4 28.6 -13.6 7.4 -11.9 -11.1 -21.6 -51.1 -26.8 -20.5 -2.6 -74.6 -3.7 -104.5 -2 -57.2 3.3 -97 11.8 -102.5 22 -1.7 3.2 -1.2 8.6 1.1 11.5 6.8 8.6 37.6 16.2 76.9 19 14.7 1 93.3 -0.3 108 -1.8z"/>
  <path d="M2527.4 826.9 c-48 -1.7 -89.4 -9.3 -89.4 -16.3 0 -6.1 32.3 -15.2 62.5 -17.6 51.9 -4.3 88.1 -5 119 -2.5 19.2 1.5 30.4 3.7 45.1 8.7 10.9 3.6 15.4 6.8 13.8 9.5 -2.6 4.6 -17.4 9.1 -37.9 11.8 -6.6 0.8 -16.9 2.2 -23 3 -24.3 3.2 -58.9 4.5 -90.1 3.4z"/>
  <path d="M53.8 652.8 c-0.2 -91.5 -0.1 -166.9 0.1 -167.5 0.2 -1 10.9 -1.3 49.1 -1.3 42.9 0 48.9 0.2 50 1.6 1.9 2.1 2.9 204.9 1.1 208.2 -0.7 1.3 -6.7 9.1 -13.5 17.5 -11.5 14.2 -70 89.2 -79.5 102 -2.4 3.1 -5 5.7 -5.7 5.7 -1.2 0 -1.4 -26 -1.6 -166.2z"/>
  <path d="M1758.7 800.3 c-0.3 -1 -0.8 -3.3 -1.2 -5.1 -0.4 -1.8 -1.4 -3.6 -2.3 -4.1 -0.9 -0.5 -18.6 -1.1 -39.2 -1.3 -33 -0.4 -38 -0.7 -41.8 -2.3 -2.4 -1 -3.9 -2.2 -3.5 -2.6 0.5 -0.5 32.8 -1.1 71.8 -1.3 45.7 -0.2 78 -0.8 90.5 -1.7 23.2 -1.6 50.3 -1.8 51 -0.4 0.3 0.6 -4.4 3 -10.4 5.4 l-10.9 4.3 -7.4 -1.2 c-5.3 -0.9 -14.3 -1.1 -32.6 -0.7 -13.8 0.4 -30.2 0.7 -36.3 0.7 -12.9 0 -14.5 0.7 -15.3 7.1 l-0.6 4.4 -5.7 0.3 c-4.7 0.2 -5.7 0 -6.1 -1.5z"/>
  <path d="M2810.3 779.5 c-1.2 -5.5 -4.7 -22.4 -7.8 -37.5 -3.1 -15.1 -6.5 -29.4 -7.5 -31.8 -1.5 -3.3 -2.9 -4.7 -6.2 -6.2 -3.8 -1.7 -6.5 -1.9 -22.3 -1.9 -9.9 0.1 -26.1 0.5 -36 0.9 -9.9 0.4 -80.5 2.4 -157 4.3 -76.4 2 -158.6 4.1 -182.5 4.7 -34.6 0.9 -100 1.6 -106.8 1.1 -1.4 -0.1 -6.2 -9.5 -6.2 -12.2 0 -2 4.8 -2.2 71.5 -3.9 22.6 -0.6 121.6 -3.3 220 -6 98.5 -2.7 192.1 -5.3 208.2 -5.6 l29.2 -0.7 0.9 2.4 c1.2 3.1 5.5 84 5 94.4 l-0.3 8 -2.2 -10z"/>
  <path d="M2745 782.9 c-9.3 -8.3 -25.4 -16.4 -42.3 -21.3 -12.6 -3.7 -50.5 -11.3 -62.2 -12.6 -16.1 -1.7 -24.7 -3.2 -23.8 -4.1 0.5 -0.5 30.6 -1.6 66.8 -2.4 82.3 -1.9 76.4 -1.9 77.2 0.1 0.3 0.9 -1.4 10.2 -3.7 20.7 -4.7 20.7 -5.5 23.7 -6.7 23.7 -0.5 -0.1 -2.8 -1.9 -5.3 -4.1z"/>
  <path d="M1699.7 775.4 c-0.4 -0.4 -0.7 -4.2 -0.7 -8.4 0 -5.2 -0.4 -8.1 -1.3 -8.8 -0.9 -0.8 -14.3 -1.2 -42.1 -1.3 l-40.8 -0.2 -4.6 -3.1 c-7.7 -5.2 -7 -6 4.4 -5.1 5.5 0.5 59.2 1 119.4 1.2 60.2 0.2 118.3 0.5 129 0.5 10.7 0.1 31.6 -0.3 46.4 -0.9 26.1 -1 30.6 -0.9 30.6 0.7 0 0.4 -3.1 2.9 -6.9 5.5 -6.1 4.2 -7.1 4.6 -9.2 3.5 -3.3 -1.8 -27.9 -2.8 -59.9 -2.5 -27 0.3 -32.4 0.9 -34.2 3.8 -0.4 0.7 -0.8 4.2 -0.8 8 l0 6.7 -3.5 0 c-4.3 0 -4.9 -1.2 -3.5 -7.4 1.9 -8.7 6.3 -8.1 -55.2 -8.5 -63 -0.4 -58 -1.2 -57.6 10 l0.3 6.4 -4.5 0.3 c-2.5 0.2 -4.9 0 -5.3 -0.4z"/>
  <path d="M1879.8 735.8 c-0.7 -13.6 2.8 -12.4 -36.5 -13.1 -50.2 -0.9 -63.1 -0.6 -67.2 1.6 l-3.4 1.9 0.5 7.3 c0.5 7 0.4 7.4 -1.8 7.9 -4.2 1.1 -4.9 0 -5 -7.2 0 -8.2 -1.3 -10.8 -5.6 -11.5 -8.2 -1.4 -65.6 -2.9 -83.1 -2.2 -23.1 0.9 -23 0.8 -23.5 11.9 -0.4 8 -1.7 10.2 -5 9.2 -1.5 -0.5 -2.1 -2.4 -3.2 -9.4 -1.8 -12.2 -1.9 -12.2 -9.3 -12.2 -7 0 -10.7 -0.8 -10.7 -2.2 0 -0.5 1.2 -2.1 2.6 -3.5 l2.6 -2.6 36.6 0.7 c20.2 0.3 67.1 0.9 104.2 1.1 37.1 0.3 80.6 1 96.5 1.5 21.1 0.8 33.9 0.7 47 -0.1 23.9 -1.6 60.6 -2.1 62.4 -1 1.2 0.8 1.2 1.3 -0.2 3.5 -3.7 5.5 -3 5.5 -46.2 5.9 -28.7 0.2 -40.6 0.7 -42.2 1.5 -2.7 1.5 -4.3 6.8 -4.3 14 0 4.8 -0.2 5.2 -2.4 5.2 -2.2 0 -2.4 -0.4 -2.8 -8.2z"/>
  <path d="M1564.5 713.9 c-1.9 -1.7 -3.5 -3.5 -3.5 -4 0 -1 22.2 -1.2 25.8 -0.3 2.8 0.8 2.8 2.5 -0.1 5.2 -2 1.9 -3.5 2.2 -10.5 2.2 -7.7 0 -8.3 -0.2 -11.7 -3.1z"/>
  <path d="M1827.3 702.8 c-0.6 -0.7 -1.3 -3.5 -1.6 -6.2 -0.8 -8.1 -0.5 -8 -27.5 -8.8 -13 -0.5 -34.3 -1.1 -47.2 -1.6 -21.5 -0.7 -30.3 -0.3 -32.2 1.6 -0.4 0.4 -0.9 3.3 -1.2 6.5 -0.3 3.1 -0.8 6.1 -1.1 6.7 -0.9 1.5 -16 1.3 -17.3 -0.2 -1.4 -1.8 -2.3 -7.1 -1.4 -8.5 0.4 -0.6 5.2 -3.7 10.7 -6.9 20.3 -11.6 28.5 -17.7 42.4 -30.9 22 -21 33.9 -42.2 39.6 -70.5 3.2 -15.6 0.6 -40 -5.7 -52.4 -4.3 -8.6 -12.6 -18.2 -20.4 -23.5 -11.9 -8 -21.8 -10.2 -37.6 -8.3 -10.2 1.3 -15.8 3.8 -24.7 11.3 -4.8 4 -6.5 4.9 -7.4 4 -0.9 -0.9 -1.1 -6.3 -0.9 -18.9 0.1 -9.7 -0.2 -24.4 -0.7 -32.7 -0.5 -8.2 -0.7 -15.3 -0.4 -15.7 0.2 -0.5 2.9 1.4 6 4.1 12.5 11.2 26.4 15.6 40.1 12.7 17.5 -3.6 29.5 -15 34.7 -33 3.7 -12.6 0.1 -24.9 -10.2 -35.7 -9 -9.5 -19.8 -13.9 -33.8 -13.9 -19.5 0 -34.2 9.8 -39.8 26.3 -1.2 3.7 -2.6 6.7 -3.2 6.7 -0.5 0 -2.6 -4 -4.6 -9 -4.6 -11.5 -22.4 -41.3 -30.7 -51.3 -14.9 -18 -30.8 -27.5 -53.9 -32.1 -8.1 -1.6 -33.3 -3.6 -45.3 -3.6 -3.8 0 -7.2 -0.5 -7.5 -1 -0.8 -1.3 7.7 -12 19.2 -24 35.5 -37.3 79.7 -62 137.6 -77 31.6 -8.1 49.2 -10 82.7 -8.9 25.3 0.9 38.8 2.8 59.5 8.5 18.6 5.2 29.5 9.4 51 19.9 25.4 12.4 41 22.7 63.4 41.9 10 8.6 32.1 32.2 32.1 34.2 0 2.3 -7.2 14.9 -16.6 28.9 l-9.3 14 -10.5 30 c-5.7 16.5 -12.7 35.9 -15.5 43.2 -2.8 7.3 -5.1 13.7 -5.1 14.2 0 0.6 -1.8 5.7 -4 11.3 -6.7 17.4 -13 34.5 -19.5 53.3 -9.4 26.8 -13.8 38.9 -18 49.5 -2 5.2 -5 13.1 -6.5 17.5 -1.6 4.4 -4.4 11.8 -6.4 16.5 -1.9 4.7 -5.3 13.2 -7.5 19 -2.1 5.8 -5.8 15.5 -8.1 21.5 -2.2 6.1 -5.6 14.4 -7.4 18.5 -1.9 4.1 -3.9 9.1 -4.6 11 -0.7 1.9 -3.3 7.9 -5.7 13.3 -4.4 9.6 -4.4 9.8 -2.8 12.4 1.7 2.5 1.7 2.7 -0.1 4 -1.2 0.8 -2.3 3.5 -2.9 7.1 l-1 5.7 -5.1 0.3 c-3.3 0.2 -5.4 -0.2 -6.1 -1z"/>
  <path d="M1936.7 703.4 c-0.4 -0.4 -0.7 -3.3 -0.7 -6.5 0 -3.2 -0.5 -6.1 -1.1 -6.5 -0.6 -0.3 -12.4 -0.6 -26.3 -0.5 -13.8 0.1 -25.7 -0.2 -26.3 -0.7 -1.2 -0.8 1.2 -8.4 7.8 -24.2 1 -2.5 5.2 -13.5 9.3 -24.5 4.1 -11 9.6 -25.4 12.2 -32 6.9 -17.8 41.1 -112.1 48.4 -133.5 2.3 -6.9 9.1 -26.9 15.1 -44.5 6 -17.6 12.1 -36.4 13.4 -41.8 1.4 -5.3 3.4 -11.9 4.4 -14.5 1.4 -3.5 2 -8.7 2.5 -20.7 0.9 -22.4 1.7 -30.5 2.9 -30.5 1.3 0 2.1 1.1 11 14.5 35.5 53.2 53.2 114.6 51.4 177.7 -1.4 47.7 -11.7 88.6 -32.7 130.3 -7.9 15.8 -21.2 37.6 -25.4 41.8 -1.7 1.7 -3.9 1.8 -29.2 1.5 l-27.2 -0.3 -2.6 2.4 c-1.9 1.8 -2.6 3.5 -2.8 7.5 -0.2 3.6 -0.7 5.2 -1.8 5.4 -0.9 0.1 -1.9 0 -2.3 -0.4z"/>
  <path d="M1597.6 698.8 c-0.3 -0.7 -0.6 -4.3 -0.8 -8.1 -0.3 -4.1 -1 -7.3 -1.8 -8.2 -2.6 -2.5 -47.2 -4.9 -55.6 -3 -3 0.7 -3.2 0.4 -8.2 -7.2 -7.8 -12.3 -11 -17.8 -17.8 -31.4 -23.8 -47.6 -35.1 -100.2 -32.4 -151.6 1.9 -37.1 8.2 -66.6 21.1 -99.2 5.7 -14.4 19.9 -42.5 23.9 -47.2 l2.7 -3.3 2.9 5.5 c3.4 6.3 8.2 9.6 31.1 21 27.9 13.9 38.6 25.2 46.8 49.4 3.3 9.7 5.1 21.3 6.5 40.5 1.9 25.5 5.7 38.4 17.2 57.7 5.8 9.8 12.6 17.5 20.2 22.8 l2.9 2.1 -6.4 5 c-15.3 12.1 -20.7 19.6 -25.1 35.1 -2.1 7.2 -2.3 9.7 -2.2 32.3 0 13.5 0.6 28.4 1.3 33.3 1 7.4 0.9 9.9 -0.4 16.5 -3.2 15.6 -6.7 22.2 -11.8 22.2 -3.8 0 -6.5 3 -7.8 8.5 -0.6 2.8 -1.5 5.7 -1.9 6.5 -0.9 2 -3.9 2.5 -4.4 0.8z"/>
  <path d="M1661.3 682.3 c-2.9 -0.2 -5.3 -0.7 -5.3 -1 0 -0.3 2.4 -5.6 5.4 -11.7 8.3 -16.9 8.9 -19.8 9 -42.6 0 -10.7 -0.2 -26 -0.4 -34 -0.4 -12.7 -0.3 -15.2 1.5 -19.8 2.2 -5.9 11.6 -17.2 14.3 -17.2 1.1 0 3 2.9 5.6 8.3 2.8 5.9 5.6 9.8 10 14.2 8.1 8.1 13.6 10.7 24.5 11.4 l8.6 0.6 -0.2 6.5 c-0.1 7.7 -2.8 15.9 -9.4 29.1 -6.6 13.2 -22.4 36.2 -35.2 51.2 l-4.9 5.7 -9.1 -0.2 c-5.1 -0.1 -11.6 -0.3 -14.4 -0.5z"/>
  <path d="M1873.1 656.2 c-7.4 -3.7 -10 -6.2 -6.4 -6.2 3 0 16.5 6.9 16.1 8.2 -0.7 2 -2.1 1.8 -9.7 -2z"/>
  <path d="M1876.3 648.6 c-7.2 -3.5 -9.1 -5 -7.4 -6 1.4 -0.9 16.1 6.4 16.1 8 0 2 -0.7 1.8 -8.7 -2z"/>
  <path d="M1877.8 640.4 c-6.8 -3.4 -8.5 -5.4 -4.8 -5.4 3.6 0 15 6.1 15 8 0 1.8 -3.4 0.9 -10.2 -2.6z"/>
  <path d="M1412.5 498.6 c-6.5 -2.8 -11.4 -12 -10.1 -18.9 2.9 -15.5 23.5 -19.8 32.3 -6.8 4.5 6.7 4 14.8 -1.4 21.2 -4.7 5.6 -13.8 7.6 -20.8 4.5z"/>
  <path d="M477.6 481.3 c-0.8 -1 -6.1 -7.9 -11.6 -15.3 -5.6 -7.4 -13.4 -17.7 -17.2 -22.7 -9.1 -12 -8.9 -12.7 3.4 -11.6 13.2 1.1 138.4 0.7 318.6 -1.2 253.7 -2.6 314.8 -3.4 354.2 -4.6 43 -1.2 54.2 -0.9 57.2 1.8 7.2 6.4 43.8 45.4 43.4 46.2 -1.3 2 -72.6 2.9 -557.1 7 -65.4 0.6 -134.8 1.3 -154.2 1.7 -33.4 0.5 -35.2 0.5 -36.7 -1.3z"/>
  <path d="M1291 473.5 c-2.8 -1.6 -39.7 -39.5 -63.2 -65 -8.6 -9.3 -24.7 -25.7 -35.7 -36.3 -11.1 -10.7 -20.1 -20 -20.1 -20.7 0 -0.8 0.8 -1.6 1.8 -1.9 1.7 -0.5 55.2 -1.6 100.1 -2 l24.4 -0.2 8.4 -9 c9.3 -9.9 97.9 -107 125.1 -137.1 9.6 -10.6 18.1 -19.5 19 -19.7 1.5 -0.5 273.4 -3.1 324 -3.1 20 0 21.5 0.1 22.8 1.9 3.3 4.5 2.9 4.6 -24.7 4.6 -14.3 0 -29 0.4 -32.7 0.9 -3.7 0.6 -11 1.5 -16.2 2.1 -12.3 1.5 -38.5 7.8 -54 13 -32.6 11 -73.2 32.2 -94.5 49.5 -33.9 27.4 -64.3 62.1 -83.8 95.5 -6.4 11 -15.7 29.4 -18.8 37.1 -6.7 17.1 -18.9 58.8 -18.9 65 0 3.3 -2.7 3.3 -6.9 0 -2.2 -1.7 -6.6 -4.4 -9.8 -5.9 -5.3 -2.4 -6.9 -2.7 -17.3 -2.7 -10.9 0 -11.9 0.2 -18.3 3.2 -9.5 4.5 -16.9 11.9 -21.4 21.2 -5.8 12 -1.7 11.1 -47.3 11 -31.9 0 -40 -0.2 -42 -1.4z"/>
  <path d="M297.5 464.9 c-17 -0.3 -56.2 -0.7 -87 -0.7 -63.5 -0.2 -153.2 -2 -155.5 -3.2 -1.3 -0.6 -1.4 -3.1 -1.1 -14.6 0.2 -8.7 0.7 -14.3 1.5 -15.1 0.8 -0.8 16.5 -0.9 64.6 -0.1 34.9 0.5 107.8 1.3 162 1.7 76.8 0.6 99.2 1 101.8 2 2.5 1 6.1 5 13.8 15.2 5.7 7.6 10.4 14.3 10.4 14.9 0 1.1 -57.6 1.1 -110.5 -0.1z"/>
  <path d="M2534.5 419.1 c-1.6 -1 -4.3 -3.3 -6 -5 -2.4 -2.6 -3 -4.1 -3.3 -9.4 -0.6 -11 5.2 -16.7 17 -16.7 6.1 0 7.1 0.3 10.2 3 5 4.5 7 9.2 6.3 15.7 -0.7 6.2 -3.3 10.4 -8.1 12.7 -4.6 2.2 -12.3 2.1 -16.1 -0.3z"/>
  <path d="M141 388.9 c-12.4 -0.4 -36.5 -0.7 -53.5 -0.8 -22.7 -0.1 -31.4 -0.4 -32.3 -1.3 -1.7 -1.7 -1.7 -27.7 0.1 -28.3 0.6 -0.2 127 -0.6 280.7 -1 337.5 -0.7 610.2 -2.2 657 -3.4 19 -0.6 50.8 -1.5 70.7 -2.2 19.9 -0.6 38.2 -0.8 40.7 -0.5 4.2 0.7 5.7 1.8 19.6 15.7 8.8 8.7 14.8 15.4 14.4 16 -0.5 0.8 -4.4 0.9 -13.3 0.4 -6.9 -0.3 -56 -0.2 -109.1 0.4 -394.9 4.5 -590 6.1 -716.5 5.9 -74.8 -0.2 -146.1 -0.6 -158.5 -0.9z"/>
  <path d="M1986 365.1 c-0.8 -0.5 -4.4 -1.7 -8 -2.6 -3.6 -1 -6.9 -2.1 -7.3 -2.5 -1 -0.9 0 -3.1 5.6 -11.7 3.6 -5.7 4.3 -6.3 7.3 -6.3 5.9 0 7.4 2.6 7.4 12.8 0 10.1 -1.2 12.5 -5 10.3z"/>
  <path d="M2531.7 347.9 c-13.6 -7.2 -13.8 -26.9 -0.3 -33 5 -2.3 9.5 -2.4 14.4 -0.3 7.8 3.2 12.5 9.9 12.5 17.9 0 7.2 -3.4 12.9 -9.5 16.1 -3.9 2 -12.6 1.7 -17.1 -0.7z"/>
  <path d="M925 324.6 c0 -0.9 5.1 -7.6 11.3 -14.9 19.9 -23.8 61.1 -72.1 63.3 -74.3 2.1 -2.2 25.8 -29.9 37.3 -43.6 3.6 -4.3 7.2 -8 8 -8.4 3.1 -1.2 68.8 -1.6 90.1 -0.6 20.7 1.1 93.7 0.7 229.7 -1.4 53 -0.8 50.9 -1.2 43.2 7.4 -2.4 2.6 -24.6 27.1 -49.4 54.3 -24.7 27.2 -50.6 55.6 -57.3 63.1 -9.9 10.9 -13 13.8 -15.5 14.3 -3.3 0.5 -124.3 2.3 -170.2 2.4 -14.3 0.1 -43.5 0.6 -65 1.1 -21.4 0.5 -58.5 1.2 -82.2 1.5 -38.4 0.5 -43.3 0.4 -43.3 -0.9z"/>
  <path d="M2474.7 318.8 c-2.1 -1.7 -6.2 -6.3 -9.1 -10.2 -2.9 -3.9 -8.7 -10.7 -12.8 -15.2 -13.1 -14.1 -36.8 -42.3 -57.8 -68.5 -22.1 -27.6 -52.2 -63.6 -75.5 -90.4 -8.1 -9.3 -24.7 -28.9 -36.9 -43.5 -21.5 -25.8 -40 -47.3 -54.5 -63.5 -3.9 -4.3 -7.1 -8.5 -7.1 -9.2 0 -3 11.7 -2.9 16.3 0.2 2.5 1.6 31.5 33.3 34.4 37.5 0.9 1.4 8.9 10.8 17.8 21 32 36.8 118.6 138.3 133.6 156.6 19.3 23.6 26.3 32.1 39.4 47.9 19.5 23.5 18.2 21.5 19 29.4 0.7 7.4 0.1 11.1 -1.8 11.1 -0.7 -0.1 -2.9 -1.5 -5 -3.2z"/>
  <path d="M2731.3 300.5 c-9.3 -5.6 -11.1 -18.8 -3.5 -26.9 8 -8.5 22 -7 27.8 3 2.2 3.8 2.6 5.4 2.2 10.3 -0.3 3.9 -1.1 6.8 -2.7 8.9 -5.1 7.2 -16 9.3 -23.8 4.7z"/>
  <path d="M55.2 266.8 c-1.8 -1.8 -1.6 -20.2 0.2 -21.7 1.1 -0.9 13.2 -1 49.6 -0.5 l48.1 0.7 2.8 3.2 c5.8 6.7 12.3 16.6 11.7 18 -0.5 1.3 -7.9 1.5 -55.9 1.5 -41.7 0 -55.6 -0.3 -56.5 -1.2z"/>
  <path d="M202.8 267.3 c-0.9 -0.2 -31 -42.3 -66.9 -93.6 -84.1 -120.2 -81.4 -116.4 -88 -120.4 -3 -1.8 -8.4 -4 -12.1 -5 -10.2 -2.7 -22.7 -0.7 -35 5.5 -0.5 0.2 -0.8 -11.8 -0.8 -26.7 l0 -27.1 503 0 c276.7 0 503 0.2 503 0.5 0 0.2 -36.9 43 -82.1 95.1 -45.1 52.1 -92.8 108.1 -105.9 124.4 -13.2 16.3 -26.9 32.8 -30.4 36.7 l-6.6 7.1 -18.2 0.6 c-10.1 0.3 -116.8 1 -237.3 1.6 -120.4 0.5 -241.9 1.2 -270 1.4 -28 0.2 -51.7 0.2 -52.7 -0.1z"/>
  <path d="M814 262.6 c0 -1.6 24.7 -31.2 39 -46.6 5.3 -5.8 20.4 -22.9 33.5 -38 98.2 -113.3 147.6 -170.1 151 -173.8 l4 -4.3 13.1 0.3 13.1 0.3 -91 107 c-75.2 88.5 -118.9 140 -130.7 154.3 -1.8 2.1 -2.5 2.2 -16.9 2.2 -12.2 0 -15.1 -0.3 -15.1 -1.4z"/>
  <path d="M55.6 216.4 c-1.4 -1.4 -1.6 -7.7 -1.6 -54.7 0 -31.6 0.4 -53.8 1 -54.7 0.6 -1 1.2 -1.1 1.9 -0.5 3.3 3.6 77 109.9 76.5 110.6 -0.3 0.5 -17.6 0.9 -38.4 0.9 -33.1 0 -38.1 -0.2 -39.4 -1.6z"/>
  <path d="M1830 177.8 c-11 -5.6 -13.2 -18.8 -4.6 -27.4 7.7 -7.7 17.3 -7.9 24.7 -0.5 8.8 8.7 6.5 22.7 -4.6 28.1 -5.4 2.6 -10 2.5 -15.5 -0.2z"/>
  <path d="M1228.5 155.1 c-0.5 -0.8 1 -3.1 4.2 -6.4 2.7 -2.9 15.2 -16.2 27.8 -29.7 12.6 -13.5 26.8 -28.5 31.6 -33.3 l8.6 -8.8 95.9 0.6 c116.4 0.6 131 1 134.4 3.2 4.8 3.1 78 70.5 78 71.7 0 1.4 -51.6 2.1 -261.6 3.3 -94.1 0.5 -118.2 0.4 -118.9 -0.6z"/>
 </g>
</svg>